<svg width="451" height="385" viewBox="0 0 451 385" fill="none" xmlns="http://www.w3.org/2000/svg">
<path fill-rule="evenodd" clip-rule="evenodd" d="M292.388 48.1633C312.928 48.1633 332.628 56.323 347.152 70.8475C361.677 85.372 369.837 105.071 369.837 125.612V259.388C369.837 279.928 361.677 299.628 347.152 314.152C332.628 328.677 312.928 336.837 292.388 336.837H158.612C138.071 336.837 118.372 328.677 103.848 314.152C89.323 299.628 81.1633 279.928 81.1633 259.388V125.612C81.1633 105.071 89.323 85.372 103.848 70.8475C118.372 56.323 138.071 48.1633 158.612 48.1633H292.388ZM292.388 20H158.612C130.628 20.0836 103.813 31.2374 84.0254 51.0254C64.2374 70.8135 53.0836 97.6278 53 125.612V259.388C53.0836 287.372 64.2374 314.186 84.0254 333.975C103.813 353.763 130.628 364.916 158.612 365H292.388C320.372 364.916 347.186 353.763 366.975 333.975C386.763 314.186 397.916 287.372 398 259.388V125.612C397.916 97.6278 386.763 70.8135 366.975 51.0254C347.186 31.2374 320.372 20.0836 292.388 20ZM317.524 79.8469C313.534 79.8469 309.634 81.03 306.317 83.2465C302.999 85.463 300.414 88.6135 298.887 92.2994C297.36 95.9853 296.961 100.041 297.739 103.954C298.518 107.867 300.439 111.461 303.26 114.283C306.081 117.104 309.675 119.025 313.588 119.803C317.501 120.582 321.557 120.182 325.243 118.655C328.929 117.129 332.079 114.543 334.296 111.226C336.513 107.909 337.696 104.008 337.696 100.019C337.696 97.3698 337.174 94.7468 336.16 92.2994C335.146 89.852 333.66 87.6283 331.787 85.7552C329.914 83.882 327.69 82.3961 325.243 81.3824C322.796 80.3687 320.173 79.8469 317.524 79.8469ZM261.043 141.262C250.802 134.426 238.764 130.78 226.451 130.787C209.961 130.815 194.155 137.378 182.495 149.038C170.836 160.697 164.273 176.504 164.245 192.993C164.238 205.306 167.883 217.344 174.72 227.585C181.556 237.826 191.277 245.809 202.651 250.524C214.025 255.24 226.543 256.475 238.62 254.075C250.697 251.674 261.79 245.746 270.497 237.039C279.203 228.332 285.132 217.239 287.532 205.162C289.933 193.085 288.697 180.568 283.982 169.193C279.267 157.819 271.284 148.098 261.043 141.262ZM176.269 117.948C191.114 107.991 208.576 102.659 226.451 102.624C238.334 102.601 250.106 104.921 261.093 109.452C272.079 113.982 282.064 120.635 290.477 129.028C298.89 137.421 305.566 147.391 310.122 158.367C314.679 169.343 317.026 181.109 317.031 192.993C317.038 210.867 311.746 228.342 301.824 243.21C291.902 258.078 277.796 269.67 261.288 276.523C244.779 283.376 226.61 285.182 209.076 281.712C191.542 278.242 175.43 269.652 162.776 257.028C150.122 244.404 141.495 228.312 137.984 210.786C134.473 193.26 136.236 175.086 143.05 158.562C149.865 142.038 161.425 127.904 176.269 117.948Z" fill="white"/>
</svg>
