<svg width="144" height="144" viewBox="0 0 144 144" fill="none" xmlns="http://www.w3.org/2000/svg">
<rect width="144" height="144" fill="#393939"/>
<path d="M107.261 115.576C107.595 114.574 107.846 113.342 108.013 111.881C108.18 110.42 108.263 108.897 108.263 107.31C108.263 105.724 108.18 104.2 108.013 102.739C107.846 101.278 107.595 100.005 107.261 98.9195H60.0472C63.8878 94.077 67.791 89.3598 71.7568 84.7678C75.7226 80.1758 79.6884 75.6255 83.6543 71.117C87.6201 66.6085 91.5859 62.0583 95.5517 57.4663C99.5175 52.8743 103.421 48.1571 107.261 43.3146C107.261 41.3108 107.428 39.0357 107.762 36.4892C108.096 33.9428 107.929 31.6259 107.261 29.5386C102.001 28.8707 96.4075 28.4324 90.4796 28.2236C84.5518 28.0149 78.4987 27.9523 72.3204 28.0358C66.1421 28.1193 60.0055 28.3071 53.9107 28.5993C47.8158 28.8916 41.9715 29.2047 36.3776 29.5386V44.6922C39.8007 45.1096 43.4117 45.3392 47.2105 45.381C51.0094 45.4227 54.8708 45.381 58.7949 45.2558C62.7189 45.1305 66.6639 45.0053 70.6297 44.88C74.5955 44.7548 78.4987 44.6922 82.3393 44.6922C74.5746 54.5441 66.643 64.0829 58.5444 73.3087C50.4458 82.5344 42.5977 92.0315 35 101.8V115.576H107.261ZM96.1152 32.1686H100.373C100.373 32.92 99.8306 33.3583 98.7452 33.4836C97.6598 33.6088 96.7832 33.6714 96.1152 33.6714V32.1686ZM73.8232 36.4266V33.6714C73.1553 33.6714 72.7587 33.9636 72.6335 34.5481C72.5082 35.1325 72.4456 35.7587 72.4456 36.4266C72.1117 35.7587 71.6316 35.3621 71.0054 35.2369C70.3792 35.1116 69.7322 34.9864 69.0642 34.8612C68.3963 34.7359 67.7284 34.5272 67.0605 34.235C66.3925 33.9428 65.8916 33.254 65.5576 32.1686C66.643 32.92 67.7075 33.3374 68.7511 33.4209C69.7948 33.5044 70.8175 33.5044 71.8194 33.4209C72.8213 33.3374 73.8441 33.2748 74.8877 33.2331C75.9314 33.1913 76.9959 33.3374 78.0812 33.6714C77.7473 34.3393 77.4133 34.7985 77.0794 35.049C76.7454 35.2995 76.3906 35.4665 76.0148 35.55L74.8877 35.8004C74.512 35.8839 74.1572 36.0926 73.8232 36.4266ZM54.4116 37.8042L54.5609 37.8053C55.1389 37.8142 55.4857 37.8765 55.6014 37.9921C55.7266 38.1173 55.7892 38.5556 55.7892 39.307H54.4116V37.8042ZM57.4799 33.4209C57.0207 33.5044 56.7076 33.4418 56.5406 33.2331C56.3736 33.0244 56.4154 32.7948 56.6659 32.5443C56.9163 32.2938 57.5843 32.1686 58.6696 32.1686C58.3357 32.92 57.9391 33.3374 57.4799 33.4209ZM48.9012 37.8042L48.8937 37.6038C48.8737 37.3367 48.8135 37.0695 48.7134 36.8023C48.5881 36.4684 48.5255 36.1761 48.5255 35.9257C48.5255 35.6752 48.6299 35.4665 48.8386 35.2995C49.0473 35.1325 49.4857 35.049 50.1536 35.049C50.1536 34.2976 50.091 33.8175 49.9657 33.6088C49.8405 33.4001 49.6526 33.2957 49.4022 33.2957C49.1517 33.2957 48.8595 33.3583 48.5255 33.4836C48.1915 33.6088 47.8576 33.6714 47.5236 33.6714C47.1897 32.92 47.1479 32.5025 47.3984 32.419C47.6489 32.3356 48.0246 32.3356 48.5255 32.419C49.0265 32.5025 49.5691 32.586 50.1536 32.6695C50.738 32.753 51.239 32.586 51.6564 32.1686C51.6564 33.5879 51.3642 34.715 50.7798 35.55C50.1953 36.3849 49.5691 37.1363 48.9012 37.8042ZM40.5104 33.6714C40.5104 32.92 40.8026 32.4817 41.387 32.3564C41.9715 32.2312 42.5977 32.1686 43.2656 32.1686C43.2656 32.92 42.9734 33.3583 42.3889 33.4836C41.8045 33.6088 41.1783 33.6714 40.5104 33.6714ZM103.128 35.049C102.795 35.383 102.523 35.5082 102.314 35.4247C102.106 35.3412 101.918 35.216 101.751 35.049C101.584 34.882 101.396 34.7568 101.187 34.6733C100.979 34.5898 100.707 34.715 100.373 35.049C100.373 34.715 100.519 34.3811 100.812 34.0471C101.104 33.7132 101.417 33.4627 101.751 33.2957C102.085 33.1287 102.398 33.0661 102.69 33.1078C102.982 33.1496 103.128 33.3374 103.128 33.6714V35.049ZM47.5236 36.4266C46.8557 36.4266 46.4382 36.2179 46.2713 35.8004C46.1878 35.55 46.146 35.2995 46.146 35.049C46.8139 35.049 47.2105 35.1116 47.3358 35.2369C47.461 35.3621 47.5236 35.7587 47.5236 36.4266ZM100.373 37.8042V36.4266C101.041 35.7587 101.5 35.5917 101.751 35.9257C102.001 36.2596 102.461 36.4266 103.128 36.4266C103.128 37.0945 102.836 37.4911 102.252 37.6163C101.667 37.7416 101.041 37.8042 100.373 37.8042ZM69.6904 40.5594C69.106 40.9769 68.6468 41.0186 68.3128 40.6846C68.3128 40.0167 68.5633 39.4949 69.0642 39.1192C69.5652 38.7435 69.8157 37.8459 69.8157 36.4266C70.8175 36.4266 71.3811 36.6979 71.5063 37.2406C71.6316 37.7833 71.5063 38.3678 71.1306 38.9939C70.7549 39.6201 70.2749 40.1419 69.6904 40.5594ZM72.463 39.0287C72.521 38.5881 72.7239 38.2634 73.0718 38.0547L73.8232 37.8042C73.8232 38.2217 73.7606 38.4513 73.6354 38.493C73.5101 38.5347 73.3431 38.5556 73.1344 38.5556C72.9257 38.5556 72.7587 38.5974 72.6335 38.6809C72.5552 38.733 72.5014 38.8341 72.472 38.9842L72.4598 39.0588L72.463 39.0287ZM97.4928 41.937H96.1152V40.6846C96.7832 40.6846 97.1798 40.7264 97.305 40.8099C97.4302 40.8934 97.4928 41.2691 97.4928 41.937ZM101.876 43.252C101.626 43.4607 101.271 43.5233 100.812 43.4398C100.352 43.3563 99.9141 43.1685 99.4966 42.8763C99.0792 42.584 98.8704 42.271 98.8704 41.937H101.751C102.085 42.6049 102.127 43.0432 101.876 43.252ZM98.8704 46.195H97.4928V44.6922H98.8704V46.195ZM96.1152 48.9502V47.5726H97.4928C97.4928 47.8231 97.4511 48.0736 97.3676 48.324C97.2006 48.7415 96.7832 48.9502 96.1152 48.9502ZM80.8364 57.2158C81.1704 56.5479 81.4626 55.8173 81.7131 55.0242C81.9636 54.231 82.2767 53.5422 82.6524 52.9578C83.0281 52.3733 83.4873 51.9559 84.03 51.7054C84.5726 51.4549 85.3449 51.4967 86.3468 51.8307C86.3468 51.0792 86.1798 50.5783 85.8459 50.3278C85.5119 50.0773 85.6789 49.6181 86.3468 48.9502C87.0982 48.9502 87.8288 49.2424 88.5385 49.8269C89.2481 50.4113 89.9369 51.0792 90.6049 51.8307H87.8497C87.8497 52.1646 88.1419 52.436 88.7263 52.6447C89.3108 52.8534 89.8952 53.083 90.4796 53.3335C91.0641 53.584 91.5441 53.897 91.9198 54.2728C92.2955 54.6485 92.3164 55.1703 91.9825 55.8382C90.9806 54.8363 89.9578 54.2728 88.9142 54.1475C87.8705 54.0223 86.8686 54.1266 85.9085 54.4606C84.9484 54.7946 84.03 55.2538 83.1533 55.8382C82.2767 56.4226 81.5044 56.8818 80.8364 57.2158ZM94.7377 50.3278H93.4853V48.9502H94.7377V50.3278ZM91.9825 53.083C91.9825 52.4986 92.2329 52.1229 92.7339 51.9559C92.9843 51.8724 93.2348 51.8307 93.4853 51.8307C93.4853 52.4151 93.2348 52.7908 92.7339 52.9578C92.4834 53.0413 92.2329 53.083 91.9825 53.083ZM87.787 57.9672C87.2444 57.9672 86.7852 57.8002 86.4094 57.4663C86.0337 57.1323 86.0129 56.5896 86.3468 55.8382C86.8478 55.5877 87.307 55.4208 87.7244 55.3373C88.1419 55.2538 88.4967 55.2329 88.7889 55.2746C89.0812 55.3164 89.2273 55.5042 89.2273 55.8382C89.5612 56.5896 89.5404 57.1323 89.1646 57.4663C88.7889 57.8002 88.3297 57.9672 87.787 57.9672ZM73.745 71.0737C73.4279 70.4186 73.0573 69.9947 72.6335 69.802C72.1743 69.5933 71.7777 69.5933 71.4437 69.802C71.1098 70.0108 70.901 70.3656 70.8175 70.8665C70.7341 71.3675 70.8593 71.9519 71.1933 72.6199C70.1079 72.6199 69.5026 72.3903 69.3773 71.9311C69.2521 71.4719 69.273 70.9292 69.4399 70.303C69.6069 69.6768 69.7948 69.0506 70.0035 68.4244C70.0677 68.2318 70.1063 68.0529 70.1191 67.8879L70.1205 67.8415L70.1327 67.8538C70.2736 67.9898 70.4614 68.0876 70.6962 68.1473L70.8175 68.174C71.4855 68.2992 72.4874 68.3618 73.8232 68.3618C74.1572 67.3599 74.4494 66.2746 74.6999 65.1057C74.9503 63.9368 75.2634 62.8306 75.6391 61.7869C76.0148 60.7433 76.4949 59.8249 77.0794 59.0317C77.6638 58.2386 78.457 57.6333 79.4588 57.2158C79.1249 57.9672 79.1458 58.4682 79.5215 58.7186C79.8972 58.9691 80.3981 59.1987 81.0243 59.4074C81.6505 59.6162 82.2349 59.8458 82.7776 60.0962C83.3203 60.3467 83.5916 60.8059 83.5916 61.4738C82.9237 61.4738 82.381 61.4112 81.9636 61.286C81.5461 61.1607 81.1704 60.9938 80.8364 60.785C80.5025 60.5763 80.1268 60.4093 79.7093 60.2841C79.2919 60.1589 78.7492 60.0962 78.0812 60.0962C77.7473 60.4302 77.4759 60.9103 77.2672 61.5365C77.0585 62.1626 76.8706 62.8306 76.7036 63.5402C76.5367 64.2499 76.3488 64.9178 76.1401 65.544C75.9314 66.1702 75.66 66.6503 75.326 66.9842C75.326 67.3182 75.4722 67.4434 75.7644 67.3599C76.0566 67.2764 76.3697 67.1512 76.7036 66.9842C77.0376 66.8172 77.3507 66.692 77.6429 66.6085C77.9351 66.525 78.0812 66.6503 78.0812 66.9842C78.0812 67.7356 77.9978 68.1531 77.8308 68.2366C77.6638 68.3201 77.4551 68.3201 77.2046 68.2366C76.9541 68.1531 76.6619 68.0696 76.3279 67.9861C75.994 67.9026 75.66 68.0279 75.326 68.3618C75.326 69.1132 75.6183 69.5516 76.2027 69.6768C76.7871 69.802 77.4133 69.8647 78.0812 69.8647C77.4133 70.5326 77.0167 71.2005 76.8915 71.8684C76.7663 72.5364 76.7036 73.2043 76.7036 73.8722C75.9522 73.8722 75.5139 73.6635 75.3887 73.246C75.2634 72.8286 75.2008 72.4111 75.2008 71.9937C75.2008 71.5762 75.1591 71.2631 75.0756 71.0544C74.9921 70.8457 74.5746 70.9083 73.8232 71.2423L73.745 71.0737ZM84.9692 60.0962C84.9692 59.4283 84.7396 58.9691 84.2804 58.7186C83.8212 58.4682 83.5916 57.9672 83.5916 57.2158C84.2596 57.2158 84.7188 57.3619 84.9692 57.6541C85.2197 57.9464 85.4493 58.2177 85.658 58.4682C85.8668 58.7186 86.0964 58.9065 86.3468 59.0317C86.5973 59.157 87.0982 59.0526 87.8497 58.7186C87.8497 59.3866 87.5366 59.7831 86.9104 59.9084C86.2842 60.0336 85.6372 60.0962 84.9692 60.0962ZM85.1571 62.2253C85.0318 62.3922 84.9692 62.1418 84.9692 61.4738C85.3032 60.8059 85.491 60.5554 85.5328 60.7224C85.5745 60.8894 85.5537 61.1399 85.4702 61.4738C85.3867 61.8078 85.2823 62.0583 85.1571 62.2253ZM80.8364 66.9842C80.8364 66.3163 81.0243 65.6275 81.4 64.9178C81.7757 64.2082 81.5879 63.4776 80.8364 62.7262H83.5916C82.9237 63.4776 82.4854 64.2082 82.2767 64.9178C82.0679 65.6275 81.5879 66.3163 80.8364 66.9842ZM71.9447 67.1721C71.7777 67.4643 71.5272 67.4017 71.1933 66.9842C71.1933 66.3163 71.235 65.8571 71.3185 65.6066C71.402 65.3562 71.7777 64.897 72.4456 64.229C72.4456 64.9804 72.4039 65.6066 72.3204 66.1076C72.2369 66.525 72.1117 66.8799 71.9447 67.1721ZM66.9352 71.2423C66.9352 70.5743 67.144 70.1569 67.5614 69.9899C67.8119 69.9064 68.0623 69.8647 68.3128 69.8647C68.3128 70.5326 68.2502 70.9292 68.125 71.0544C67.9997 71.1796 67.6032 71.2423 66.9352 71.2423ZM68.3113 75.0875C68.2938 74.1938 68.1273 73.747 67.8119 73.747C67.4779 73.747 67.0605 73.9348 66.5595 74.3105C66.0586 74.6863 65.4741 75.0411 64.8062 75.3751C64.1383 75.709 63.4704 75.6673 62.8024 75.2498C63.4704 74.5819 64.0965 74.1436 64.681 73.9348C65.2654 73.7261 65.5576 73.2878 65.5576 72.6199C65.8916 72.2859 66.1629 72.098 66.3717 72.0563C66.5804 72.0145 66.8309 72.0354 67.1231 72.1189C67.4153 72.2024 67.7493 72.3068 68.125 72.432C68.5007 72.5572 69.0642 72.6199 69.8157 72.6199C69.8157 73.2878 69.753 73.8931 69.6278 74.4358C69.5026 74.9785 69.0642 75.2498 68.3128 75.2498L68.3113 75.0875ZM69.8157 78.1302C69.3982 77.3788 69.2521 76.8988 69.3773 76.69C69.5026 76.4813 69.7322 76.3769 70.0661 76.3769C70.4001 76.3769 70.7967 76.4396 71.2559 76.5648C71.7151 76.69 72.1117 76.7527 72.4456 76.7527C72.4456 77.4206 72.1743 77.8172 71.6316 77.9424C71.0889 78.0676 70.4836 78.1302 69.8157 78.1302ZM62.8024 78.1302L62.6521 78.1252C62.4518 78.1119 62.2514 78.0718 62.051 78.005C61.5501 77.838 61.2996 77.4206 61.2996 76.7527H62.8024V78.1302ZM60.0472 80.8854L60.0481 80.7241C60.0545 80.1533 60.0959 79.8105 60.1725 79.6957C60.256 79.5705 60.6317 79.5078 61.2996 79.5078V80.8854H60.0472ZM57.292 85.0182H55.7892V83.7659H57.292V85.0182ZM64.18 85.0182C64.18 84.4338 64.3888 84.0581 64.8062 83.8911C65.0567 83.8076 65.3072 83.7659 65.5576 83.7659C65.5576 84.3503 65.3072 84.726 64.8062 84.893C64.5557 84.9765 64.347 85.0182 64.18 85.0182ZM58.6696 86.3958C58.6696 85.7279 58.8784 85.3105 59.2958 85.1435C59.5463 85.06 59.7968 85.0182 60.0472 85.0182C60.0472 85.6862 59.7968 86.1036 59.2958 86.2706C59.0453 86.3541 58.8366 86.3958 58.6696 86.3958ZM63.5538 87.1473C63.1364 87.3142 62.6981 87.356 62.2389 87.2725C61.7797 87.189 61.4248 86.9594 61.1744 86.5837C60.9239 86.208 60.9656 85.6862 61.2996 85.0182C62.051 85.0182 62.4685 85.1643 62.552 85.4566C62.6354 85.7488 62.6772 86.0201 62.6772 86.2706C62.6772 86.5211 62.7398 86.688 62.865 86.7715C62.9903 86.855 63.4286 86.7298 64.18 86.3958C64.18 86.7298 63.9713 86.9803 63.5538 87.1473ZM55.7892 89.2763L55.7857 89.1191C55.7552 88.4546 55.5268 88.006 55.1004 87.7734C54.6412 87.523 54.4116 87.0638 54.4116 86.3958C55.831 86.3958 56.8955 86.5211 57.6051 86.7715C58.3148 87.022 58.6696 87.8569 58.6696 89.2763H55.7892ZM60.0607 89.034L60.0646 88.998C60.1226 88.5573 60.3255 88.2326 60.6734 88.0239C60.8404 87.9404 61.0491 87.8569 61.2996 87.7734C61.2996 88.1909 61.237 88.4205 61.1117 88.4622C60.9865 88.504 60.8404 88.5249 60.6734 88.5249C60.5064 88.5249 60.3603 88.5666 60.2351 88.6501C60.1568 88.7023 60.103 88.8034 60.0737 88.9534L60.0607 89.034ZM51.6564 89.2763C51.6564 88.9423 51.719 88.7336 51.8443 88.6501C51.9695 88.5666 52.0739 88.5875 52.1574 88.7127C52.2408 88.8379 52.2617 88.9632 52.22 89.0884C52.1782 89.2136 51.9904 89.2763 51.6564 89.2763ZM60.0472 92.0315H58.6696V90.6539H60.0472V92.0315ZM57.292 92.0315H55.7892V90.6539L55.9454 90.6548C56.5512 90.6625 56.9269 90.7162 57.0726 90.8158L57.1042 90.8417C57.2294 90.967 57.292 91.3635 57.292 92.0315ZM54.4116 93.2838H53.034V92.0315H54.4116V93.2838ZM58.0435 94.3483C57.8765 94.3901 57.626 94.0352 57.292 93.2838C57.626 92.9499 57.8765 92.9081 58.0435 93.1586C58.2104 93.4091 58.2939 93.6595 58.2939 93.91C58.2939 94.1605 58.2104 94.3066 58.0435 94.3483ZM50.1536 94.9119H48.9012V93.2838C49.5691 93.2838 49.9448 93.3464 50.0283 93.4717C50.1118 93.5969 50.1536 94.077 50.1536 94.9119ZM54.4116 97.5419V98.9195H53.034V97.5419H54.4116ZM44.5179 98.9195H43.2656C43.2656 98.2515 43.5787 97.8549 44.2049 97.7297C44.831 97.6045 45.4781 97.5419 46.146 97.5419C46.48 97.8758 46.5843 98.1472 46.4591 98.3559C46.3339 98.5646 46.1043 98.7107 45.7703 98.7942C45.4363 98.8777 45.0189 98.9195 44.5179 98.9195ZM44.0796 101.925C43.8709 102.176 43.5996 102.134 43.2656 101.8V100.422C43.5996 100.088 43.8709 100.026 44.0796 100.234C44.2883 100.443 44.3927 100.714 44.3927 101.048C44.3927 101.382 44.2883 101.675 44.0796 101.925ZM50.1536 101.8C50.1536 101.132 50.404 100.715 50.905 100.548C51.1555 100.464 51.4059 100.422 51.6564 100.422C51.6564 101.09 51.5938 101.487 51.4686 101.612C51.3433 101.737 50.905 101.8 50.1536 101.8ZM47.461 102.739C47.2523 102.781 46.8139 102.468 46.146 101.8C46.48 101.466 46.7931 101.403 47.0853 101.612C47.3775 101.821 47.5654 102.05 47.6489 102.301C47.7323 102.551 47.6697 102.697 47.461 102.739ZM41.888 103.177H39.258C39.258 102.51 39.5294 102.113 40.0721 101.988C40.6148 101.862 41.2201 101.8 41.888 101.8V103.177ZM49.59 103.929C49.4648 104.096 49.2352 103.845 48.9012 103.177C49.2352 102.51 49.4648 102.259 49.59 102.426C49.7153 102.593 49.7779 102.844 49.7779 103.177C49.7779 103.511 49.7153 103.762 49.59 103.929ZM60.0472 105.807V103.177C60.3812 102.844 60.6108 102.781 60.736 102.99C60.8613 103.198 60.9239 103.511 60.9239 103.929C60.9239 104.346 60.8613 104.764 60.736 105.181C60.6108 105.599 60.3812 105.807 60.0472 105.807ZM101.751 104.43H97.4928C97.8268 104.096 98.3069 103.783 98.9331 103.491C99.5592 103.198 100.144 103.01 100.686 102.927C101.229 102.844 101.626 102.906 101.876 103.115C102.127 103.324 102.085 103.762 101.751 104.43ZM76.7036 104.43H75.326V103.177H76.7036V104.43ZM57.292 104.43C57.292 103.845 57.5008 103.47 57.9182 103.303C58.1687 103.219 58.4192 103.177 58.6696 103.177C58.6696 103.762 58.4192 104.138 57.9182 104.305C57.6677 104.388 57.459 104.43 57.292 104.43ZM80.8364 107.31L80.8346 107.516C80.8233 108.151 80.7613 108.938 80.6486 109.878C80.5233 110.921 80.1268 111.443 79.4588 111.443C79.7928 110.775 79.918 110.316 79.8346 110.065C79.7511 109.815 79.5841 109.585 79.3336 109.377C79.0831 109.168 78.8118 108.938 78.5196 108.688C78.2274 108.437 78.0812 107.978 78.0812 107.31H80.8364ZM82.3393 104.43C82.3393 103.762 82.381 103.386 82.4645 103.303C82.548 103.219 82.9237 103.177 83.5916 103.177C83.5916 103.845 83.5499 104.221 83.4664 104.305C83.3829 104.388 83.0072 104.43 82.3393 104.43ZM91.9825 104.43H90.6049V103.177H91.9825V104.43ZM54.4116 108.688C53.3262 108.688 52.7 108.417 52.5331 107.874C52.3661 107.331 52.3452 106.747 52.4704 106.121C52.5957 105.494 52.6583 104.973 52.6583 104.555C52.6583 104.138 52.3243 104.096 51.6564 104.43C51.9904 103.762 52.3243 103.386 52.6583 103.303C52.9923 103.219 53.3471 103.261 53.7228 103.428C54.0985 103.595 54.4534 103.804 54.7873 104.054C55.1213 104.305 55.4552 104.43 55.7892 104.43C55.4552 104.43 55.2465 104.597 55.163 104.931C55.0795 105.265 55.0378 105.64 55.0378 106.058C55.0378 106.475 55.0169 106.935 54.9752 107.436C54.9334 107.936 54.7456 108.354 54.4116 108.688ZM68.3128 104.43H65.5576C65.5576 104.096 65.7664 103.866 66.1838 103.741C66.6013 103.616 67.0396 103.553 67.4988 103.553C67.958 103.553 68.2919 103.616 68.5007 103.741C68.7094 103.866 68.6468 104.096 68.3128 104.43ZM79.4588 105.807H78.0812V104.43C78.6657 103.845 79.0831 103.678 79.3336 103.929C79.4171 104.012 79.4588 104.179 79.4588 104.43V105.807ZM44.7684 105.807V104.43C45.4363 104.096 45.9373 103.992 46.2713 104.117C46.6052 104.242 46.7722 104.43 46.7722 104.68C46.7722 104.931 46.6052 105.181 46.2713 105.432C45.9373 105.682 45.4363 105.807 44.7684 105.807ZM96.1152 105.807C96.1152 105.14 96.324 104.722 96.7414 104.555C96.9919 104.472 97.2424 104.43 97.4928 104.43C97.4928 105.098 97.4302 105.494 97.305 105.62C97.1798 105.745 96.7832 105.807 96.1152 105.807ZM64.18 105.807H62.8024V104.43C63.4704 104.43 63.8669 104.492 63.9922 104.618C64.1174 104.743 64.18 105.14 64.18 105.807ZM97.4928 108.688H93.4853C93.4853 108.02 93.4227 107.623 93.2974 107.498C93.1722 107.373 92.7339 107.31 91.9825 107.31C92.7339 106.559 93.2139 105.891 93.4227 105.306C93.6314 104.722 94.0697 104.43 94.7377 104.43V107.31C95.4056 107.31 96.0318 107.373 96.6162 107.498C97.2006 107.623 97.4928 108.02 97.4928 108.688ZM39.2708 105.537C39.3219 105.025 39.5264 104.698 39.8842 104.555C40.0512 104.472 40.2599 104.43 40.5104 104.43C40.5104 105.098 40.3017 105.327 39.8842 105.119C39.5404 104.947 39.3382 105.072 39.2775 105.495L39.2677 105.577L39.2708 105.537ZM47.5247 105.658C47.5336 105.08 47.5959 104.733 47.7115 104.618C47.8367 104.492 48.2333 104.43 48.9012 104.43C48.9012 104.764 48.8386 104.973 48.7134 105.056C48.5881 105.14 48.4211 105.181 48.2124 105.181C48.0037 105.181 47.8367 105.202 47.7115 105.244C47.5862 105.286 47.5236 105.473 47.5236 105.807V105.79L47.5247 105.658ZM102.753 105.494C102.586 105.703 102.377 105.766 102.127 105.682C101.876 105.599 101.751 105.181 101.751 104.43L101.9 104.432C102.427 104.448 102.745 104.554 102.854 104.75L102.878 104.806C102.961 105.056 102.92 105.286 102.753 105.494ZM66.309 107.436C66.1421 107.686 65.8916 107.644 65.5576 107.31V105.807C65.8916 105.473 66.1421 105.432 66.309 105.682C66.476 105.933 66.5595 106.225 66.5595 106.559C66.5595 106.893 66.476 107.185 66.309 107.436ZM51.6564 107.31H50.1536V105.807H51.6564V107.31ZM100.373 107.31H98.8704V105.807H100.373V107.31ZM48.9012 108.688L48.7039 108.751C47.7974 109.026 47.0909 109.047 46.5843 108.813C46.0417 108.563 45.7703 108.27 45.7703 107.936C45.7703 107.602 46.0417 107.331 46.5843 107.122C47.127 106.914 47.8993 106.976 48.9012 107.31V108.688ZM57.292 108.688L57.1358 108.687C56.4796 108.679 56.0933 108.616 55.9771 108.5C55.8518 108.375 55.7892 107.978 55.7892 107.31H57.292V108.688ZM63.8043 109.064C63.4704 109.064 63.0529 109.001 62.552 108.876C62.051 108.75 61.6336 108.688 61.2996 108.688V107.31H64.18C64.514 107.978 64.6184 108.437 64.4931 108.688C64.3679 108.938 64.1383 109.064 63.8043 109.064ZM72.4456 108.688H71.1933V107.31H72.4456V108.688ZM87.8497 108.688H86.3468V107.31C87.0982 107.31 87.5366 107.373 87.6618 107.498C87.787 107.623 87.8497 108.02 87.8497 108.688ZM101.751 108.688L101.679 108.612C101.409 108.316 101.37 108.091 101.563 107.936C101.772 107.769 102.043 107.686 102.377 107.686C102.711 107.686 103.003 107.769 103.254 107.936C103.504 108.103 103.462 108.354 103.128 108.688H101.751ZM44.7684 110.065L44.6106 110.133C43.9405 110.407 43.4505 110.447 43.1404 110.253C42.8064 110.045 42.6394 109.752 42.6394 109.377C42.6394 109.001 42.8064 108.709 43.1404 108.5C43.4743 108.291 44.017 108.354 44.7684 108.688V110.065ZM67.1567 110.885L67.1231 110.88C66.9978 110.838 66.9352 110.107 66.9352 108.688C67.2692 108.354 67.457 108.437 67.4988 108.938C67.5405 109.439 67.5197 109.898 67.4362 110.316C67.3527 110.733 67.2483 110.921 67.1231 110.88L67.1567 110.885ZM78.0812 111.443C76.6619 111.443 75.5974 111.151 74.8877 110.566C74.178 109.982 73.8232 109.356 73.8232 108.688C75.2426 108.688 76.3071 108.98 77.0167 109.565C77.7264 110.149 78.0812 110.775 78.0812 111.443ZM91.9825 110.065H90.6049V108.688H91.9825V110.065ZM85.7206 111.13C85.5537 111.172 85.3032 110.817 84.9692 110.065C85.3032 109.732 85.5537 109.669 85.7206 109.878C85.8876 110.086 85.9711 110.337 85.9711 110.629C85.9711 110.921 85.8876 111.088 85.7206 111.13ZM54.7873 111.819C54.2864 111.819 53.7228 111.756 53.0966 111.631C52.4704 111.506 51.9904 111.443 51.6564 111.443V110.065H55.7892C56.1232 110.817 56.1649 111.297 55.9144 111.506C55.664 111.714 55.2883 111.819 54.7873 111.819ZM71.1933 111.443H69.8157V110.065C70.4836 110.065 70.8802 110.128 71.0054 110.253C71.1306 110.379 71.1933 110.775 71.1933 111.443ZM93.4853 111.443V110.065H96.1152C96.1152 110.733 95.8439 111.13 95.3012 111.255C94.7585 111.38 94.1532 111.443 93.4853 111.443ZM86.3468 36.4266V37.8042C86.6808 38.2217 87.0356 38.3886 87.4113 38.3051C87.787 38.2217 88.1001 38.0755 88.3506 37.8668C88.6011 37.6581 88.8098 37.512 88.9768 37.4285C89.1438 37.345 89.2273 37.4702 89.2273 37.8042C89.2273 38.5556 89.0185 38.9105 88.6011 38.8687C88.1836 38.827 87.7453 38.7643 87.2861 38.6809C86.8269 38.5974 86.4721 38.6391 86.2216 38.8061C85.9711 38.9731 86.0129 39.5993 86.3468 40.6846H82.3393C83.0072 40.0167 83.6751 39.1401 84.343 38.0547C85.011 36.9693 85.6789 36.4266 86.3468 36.4266ZM76.7036 39.307C76.7036 39.5575 76.6619 39.808 76.5784 40.0585C76.4114 40.4759 75.994 40.6846 75.326 40.6846V39.307H76.7036ZM93.4853 37.8042L93.2233 37.8008C91.9343 37.7665 90.9571 37.4755 90.2918 36.9275C89.5821 36.3431 89.2273 35.7169 89.2273 35.049C89.5612 35.383 89.9787 35.5917 90.4796 35.6752C90.9806 35.7587 91.4398 35.8422 91.8572 35.9257C92.2747 36.0092 92.6504 36.1761 92.9843 36.4266C93.3183 36.6771 93.4853 37.1363 93.4853 37.8042ZM72.4456 73.8722L72.4447 74.0335C72.4384 74.6044 72.3969 74.9472 72.3204 75.062C72.2369 75.1872 71.8612 75.2498 71.1933 75.2498V73.8722H72.4456ZM68.3128 75.2498C68.6468 75.6673 68.7094 75.9595 68.5007 76.1265C68.2919 76.2934 68.0206 76.3769 67.6866 76.3769C67.3527 76.3769 67.0605 76.2934 66.81 76.1265C66.5595 75.9595 66.6013 75.6673 66.9352 75.2498H68.3128ZM47.5236 96.1643H44.7684C45.4363 95.4963 45.8955 95.1206 46.146 95.0371C46.3965 94.9536 46.8557 94.9119 47.5236 94.9119V96.1643ZM54.4116 37.8042H53.034V40.6846C52.3661 40.6846 51.719 40.8516 51.0928 41.1856C50.4667 41.5195 50.1536 41.3526 50.1536 40.6846C50.1536 39.9332 50.2997 39.4323 50.5919 39.1818C50.8841 38.9313 51.1555 38.7226 51.4059 38.5556C51.6564 38.3886 51.8443 38.1799 51.9695 37.9294C52.0947 37.679 51.9904 37.178 51.6564 36.4266C52.3243 36.4266 52.7209 36.3431 52.8462 36.1761C52.9714 36.0092 52.9923 35.8004 52.9088 35.55C52.8253 35.2995 52.7418 35.0073 52.6583 34.6733C52.5748 34.3393 52.7 34.0054 53.034 33.6714C54.4534 34.3393 55.8101 34.7985 57.1042 35.049C58.3983 35.2995 59.3793 35.7587 60.0472 36.4266C60.7152 36.4266 61.1535 36.3014 61.3622 36.0509C61.5709 35.8004 61.6753 35.4665 61.6753 35.049C61.6753 34.715 61.5501 34.2558 61.2996 33.6714C62.051 33.6714 62.552 33.4209 62.8024 32.92C63.0529 32.419 63.5121 32.1686 64.18 32.1686V35.049C64.848 34.715 65.3072 34.5898 65.5576 34.6733C65.8081 34.7568 66.0377 34.9238 66.2464 35.1742C66.4552 35.4247 66.6848 35.6961 66.9352 35.9883C67.1857 36.2805 67.6449 36.4266 68.3128 36.4266C68.3128 37.178 68.1041 37.679 67.6866 37.9294C67.2692 38.1799 66.7891 38.3886 66.2464 38.5556C65.7037 38.7226 65.2237 38.9313 64.8062 39.1818C64.3888 39.4323 64.18 39.9332 64.18 40.6846C63.4286 40.6846 62.9277 40.5594 62.6772 40.3089C62.4267 40.0585 62.218 39.8289 62.051 39.6201C61.884 39.4114 61.6753 39.3488 61.4248 39.4323C61.1744 39.5158 60.7152 39.9332 60.0472 40.6846C59.7133 40.3507 59.588 40.0793 59.6715 39.8706C59.755 39.6619 59.922 39.474 60.1725 39.307C60.4229 39.1401 60.6734 38.9522 60.9239 38.7435C61.1744 38.5347 61.2996 38.2217 61.2996 37.8042C60.6317 37.1363 60.1099 36.9067 59.7341 37.1154C59.3584 37.3241 59.0453 37.6998 58.7949 38.2425C58.5444 38.7852 58.3148 39.3279 58.1061 39.8706C57.8973 40.4133 57.626 40.6846 57.292 40.6846C57.292 39.2653 57.2294 38.2008 57.1042 37.4911C56.9789 36.7814 56.5406 36.4266 55.7892 36.4266C55.1213 36.4266 54.7247 36.4892 54.5995 36.6145C54.4742 36.7397 54.4116 37.1363 54.4116 37.8042ZM48.9012 37.8042L48.6739 38.0516C48.0555 38.703 47.3381 39.2885 46.5217 39.808C45.6033 40.3924 44.0587 40.6846 41.888 40.6846C42.222 39.9332 42.3472 39.2862 42.2637 38.7435C42.1802 38.2008 42.0132 37.7207 41.7628 37.3033C41.5123 36.8858 41.2409 36.4892 40.9487 36.1135C40.6565 35.7378 40.5104 35.383 40.5104 35.049C41.9297 35.7169 43.3282 36.3431 44.7058 36.9275C46.0834 37.512 47.4819 37.8042 48.9012 37.8042ZM62.8024 78.1302L62.9417 78.1271C63.5287 78.0994 63.8997 77.8917 64.0548 77.5041C64.1383 77.2536 64.18 77.0031 64.18 76.7527C64.514 76.7527 64.7853 76.8988 64.9941 77.191C65.2028 77.4832 65.4324 77.7545 65.6829 78.005C65.9333 78.2555 66.2673 78.4225 66.6848 78.506C67.1022 78.5894 67.6449 78.4642 68.3128 78.1302C68.3128 78.7982 68.2502 79.3409 68.125 79.7583C67.9997 80.1758 67.8328 80.5097 67.624 80.7602C67.4153 81.0107 67.2483 81.2611 67.1231 81.5116C66.9978 81.7621 66.9352 82.0543 66.9352 82.3883C66.2673 82.0543 65.7246 81.9291 65.3072 82.0126C64.8897 82.0961 64.514 82.263 64.18 82.5135C63.8461 82.764 63.4704 83.0353 63.0529 83.3275C62.6354 83.6198 62.051 83.7659 61.2996 83.7659C62.051 83.0979 62.4893 82.3465 62.6146 81.5116C62.7398 80.6767 62.8024 79.5496 62.8024 78.1302ZM60.0472 80.8854V83.7659C59.3793 83.7659 58.7531 83.4737 58.1687 82.8892C57.5843 82.3048 57.292 81.6369 57.292 80.8854H60.0472ZM55.7892 89.2763V90.6539H53.034C53.034 89.2345 53.3262 88.4622 53.9107 88.337C54.4951 88.2118 55.1213 88.5248 55.7892 89.2763ZM54.4116 97.5419L54.4797 97.4022C54.7593 96.8125 54.841 96.4207 54.7247 96.2269C54.5995 96.0181 54.3699 95.9138 54.0359 95.9138C53.7019 95.9138 53.3054 95.9555 52.8462 96.039C52.387 96.1225 51.9904 96.1643 51.6564 96.1643L51.5823 96.0265C51.2325 95.3539 51.1946 94.9197 51.4686 94.724C51.7608 94.5153 52.1574 94.4318 52.6583 94.4736C53.1592 94.5153 53.7228 94.5988 54.349 94.724C54.9752 94.8493 55.4552 94.9119 55.7892 94.9119V97.5419H54.4116ZM41.888 103.177L41.9636 103.105C42.26 102.835 42.4853 102.797 42.6394 102.99C42.8064 103.198 42.8899 103.47 42.8899 103.804C42.8899 104.138 42.8064 104.409 42.6394 104.618C42.4724 104.826 42.222 104.764 41.888 104.43V103.177ZM80.8364 107.31V105.807C80.8364 105.14 80.8991 104.743 81.0243 104.618C81.1495 104.492 81.5879 104.43 82.3393 104.43L82.3437 104.526C82.367 104.773 82.4839 104.94 82.6943 105.027L82.7776 105.056C83.0698 105.14 83.362 105.181 83.6543 105.181C83.9465 105.181 84.2387 105.202 84.5309 105.244C84.8231 105.286 84.9692 105.473 84.9692 105.807V105.802V103.177C85.6628 103.177 86.143 103.284 86.4098 103.498L86.4721 103.553C86.7225 103.804 86.9313 104.054 87.0982 104.305C87.2652 104.555 87.474 104.722 87.7244 104.806C87.9749 104.889 88.4758 104.764 89.2273 104.43V105.807C88.8933 105.807 88.6219 105.745 88.4132 105.62C88.2045 105.494 87.954 105.39 87.6618 105.306C87.3696 105.223 87.0356 105.202 86.6599 105.244C86.2842 105.286 85.7206 105.473 84.9692 105.807C84.9692 107.227 84.7396 108.354 84.2804 109.189C83.8212 110.024 83.5916 110.775 83.5916 111.443C83.0072 111.443 82.6315 111.234 82.4645 110.817C82.381 110.566 82.3393 110.316 82.3393 110.065C82.3393 109.398 82.381 108.938 82.4645 108.688C82.548 108.437 82.9237 107.978 83.5916 107.31H80.8364ZM68.3128 104.43H71.1933C71.1933 104.764 71.1306 104.973 71.0054 105.056C70.8802 105.14 70.7132 105.181 70.5045 105.181C70.2957 105.181 70.1287 105.202 70.0035 105.244C69.8783 105.286 69.8157 105.473 69.8157 105.807C69.0642 105.807 68.6259 105.745 68.5007 105.62C68.3754 105.494 68.3128 105.098 68.3128 104.43ZM40.5104 107.31L40.5826 107.386C40.8524 107.682 40.8909 107.908 40.6982 108.062C40.4895 108.229 40.2182 108.312 39.8842 108.312C39.5502 108.312 39.258 108.229 39.0076 108.062C38.7571 107.895 38.8406 107.644 39.258 107.31H40.5104ZM44.7684 105.807L44.7655 105.976C44.7417 106.634 44.5758 107.079 44.2675 107.31C43.9335 107.561 43.5578 107.686 43.1404 107.686C42.7229 107.686 42.2637 107.623 41.7628 107.498C41.2618 107.373 40.8444 107.31 40.5104 107.31L40.513 107.141C40.5337 106.483 40.679 106.039 40.9487 105.807C41.2409 105.557 41.6166 105.432 42.0758 105.432C42.535 105.432 42.9942 105.494 43.4534 105.62C43.9126 105.745 44.351 105.807 44.7684 105.807ZM97.4928 108.688L97.774 108.692C98.3261 108.707 98.8168 108.768 99.2462 108.876C99.7471 109.001 99.6219 109.398 98.8704 110.065H97.4928V108.688ZM48.9012 108.688L49.0502 108.689C49.6252 108.698 49.9513 108.76 50.0283 108.876C50.1118 109.001 50.1536 109.398 50.1536 110.065H48.9012V108.688ZM60.0472 110.065H62.8024C63.1364 110.817 63.2408 111.297 63.1155 111.506C62.9903 111.714 62.7607 111.819 62.4267 111.819C62.0928 111.819 61.6962 111.756 61.237 111.631C60.7778 111.506 60.3812 111.443 60.0472 111.443V110.065ZM57.292 108.688L57.4924 108.68C57.7596 108.66 58.0268 108.6 58.2939 108.5C58.6279 108.375 58.9201 108.312 59.1706 108.312C59.4211 108.312 59.6298 108.437 59.7968 108.688C59.9637 108.938 60.0472 109.398 60.0472 110.065H57.292V108.688ZM101.751 108.688L101.749 108.886C101.735 109.855 101.61 110.457 101.375 110.692C101.125 110.942 100.895 110.984 100.686 110.817C100.478 110.65 100.415 110.337 100.499 109.878C100.582 109.418 100.999 109.022 101.751 108.688ZM44.7684 110.065H47.5236C47.8576 110.817 47.9619 111.297 47.8367 111.506C47.7115 111.714 47.4819 111.819 47.1479 111.819C46.8139 111.819 46.4174 111.756 45.9582 111.631C45.499 111.506 45.1024 111.443 44.7684 111.443V110.065ZM83.5916 35.049V37.8042C82.9237 37.4702 82.381 37.3659 81.9636 37.4911C81.5461 37.6163 81.1704 37.8668 80.8364 38.2425C80.5025 38.6182 80.1268 39.0357 79.7093 39.4949C79.2919 39.9541 78.7492 40.3507 78.0812 40.6846C78.0812 40.1837 78.0395 39.7662 77.956 39.4323C77.8725 39.1818 77.7264 38.9939 77.5177 38.8687C77.309 38.7435 77.0376 38.8896 76.7036 39.307V36.4266C77.0376 36.4266 77.309 36.4892 77.5177 36.6145C77.7264 36.7397 77.956 36.9067 78.2065 37.1154C78.457 37.3241 78.7909 37.4911 79.2084 37.6163C79.6258 37.7416 80.1685 37.8042 80.8364 37.8042C79.8345 37.1363 79.3336 36.5936 79.3336 36.1761C79.3336 35.7587 79.5006 35.383 79.8346 35.049C80.1685 34.715 80.5025 34.3393 80.8364 33.9219C81.1704 33.5044 81.1704 32.92 80.8364 32.1686H82.3393C82.3393 32.586 82.2767 32.9617 82.1514 33.2957C82.0262 33.6297 81.9636 33.9219 81.9636 34.1724C81.9636 34.4228 82.0679 34.6316 82.2767 34.7985C82.4854 34.9655 82.9237 35.049 83.5916 35.049ZM91.9825 33.6714H87.8497L87.8548 33.5819C87.8893 33.2886 88.0963 33.0471 88.4758 32.8574C88.8933 32.6486 89.3734 32.5443 89.9161 32.5443C90.4588 32.5443 90.9388 32.6486 91.3563 32.8574C91.7737 33.0661 91.9825 33.3374 91.9825 33.6714ZM93.4853 41.937L93.4862 42.0983C93.4925 42.6691 93.534 43.0119 93.6105 43.1267C93.694 43.252 94.0697 43.3146 94.7377 43.3146C94.4037 44.066 94.1532 44.567 93.9862 44.8174C93.8193 45.0679 93.7358 45.2766 93.7358 45.4436C93.7358 45.6106 93.8193 45.8193 93.9862 46.0698C94.1532 46.3203 94.4037 46.8212 94.7377 47.5726C94.0697 47.2387 93.6105 47.1134 93.3601 47.1969C93.1096 47.2804 92.9009 47.4474 92.7339 47.6979C92.5669 47.9483 92.3582 48.2197 92.1077 48.5119C91.8572 48.8041 91.3563 48.9502 90.6049 48.9502V46.195C90.2709 45.8611 90.0622 45.7358 89.9787 45.8193C89.8952 45.9028 89.8117 46.0698 89.7282 46.3203C89.6447 46.5707 89.4777 46.8421 89.2273 47.1343C88.9768 47.4265 88.5176 47.5726 87.8497 47.5726C87.8497 46.8212 87.9958 46.3203 88.288 46.0698C88.5802 45.8193 88.8933 45.6106 89.2273 45.4436C89.5612 45.2766 89.8743 45.0679 90.1665 44.8174C90.4588 44.567 90.6049 44.066 90.6049 43.3146V43.3168L90.6099 43.4649C90.6199 43.6152 90.6449 43.7654 90.685 43.9157L90.7301 44.066C90.8971 44.4835 91.3145 44.6922 91.9825 44.6922C92.3164 44.6922 92.4625 44.4835 92.4208 44.066C92.379 43.6486 92.3164 43.2311 92.2329 42.8136C92.1494 42.3962 92.1494 42.0622 92.2329 41.8118C92.3164 41.5613 92.7339 41.603 93.4853 41.937ZM72.4456 73.8722V71.2423H73.8232C73.8232 71.5762 73.8858 71.9728 74.0111 72.432C74.1363 72.8912 74.1989 73.2878 74.1989 73.6217C74.1989 73.9557 74.0946 74.1644 73.8858 74.2479C73.6771 74.3314 73.197 74.2062 72.4456 73.8722ZM47.5236 96.1643H51.6564L51.6525 96.2942C51.6162 96.8839 51.3252 97.2371 50.7798 97.354C50.1953 97.4792 49.5691 97.5419 48.9012 97.5419C48.9012 98.2098 49.0473 98.669 49.3395 98.9195C49.6318 99.1699 49.4857 99.6709 48.9012 100.422C47.8993 100.422 47.2523 100.339 46.9601 100.172C46.6678 100.005 46.5635 99.7335 46.647 99.3578C46.7305 98.9821 46.8974 98.5229 47.1479 97.9802C47.3984 97.4375 47.5236 96.8322 47.5236 96.1643ZM83.5916 35.049V33.6714C83.9256 33.3374 84.1969 33.1913 84.4057 33.2331C84.6144 33.2748 84.8649 33.4001 85.1571 33.6088C85.4493 33.8175 85.7833 33.9636 86.159 34.0471C86.5347 34.1306 87.0982 34.0054 87.8497 33.6714L87.8572 33.8718C87.8772 34.139 87.9373 34.4061 88.0375 34.6733C88.1628 35.0073 88.2254 35.2995 88.2254 35.55C88.2254 35.8004 88.1001 36.0092 87.8497 36.1761C87.5992 36.3431 87.0982 36.4266 86.3468 36.4266L86.3414 36.3176C86.3126 36.0331 86.1683 35.7981 85.9085 35.6126C85.6163 35.4038 85.3032 35.2577 84.9692 35.1742C84.5518 35.0908 84.0926 35.049 83.5916 35.049ZM101.751 40.6846L101.88 40.6869C102.462 40.7076 102.753 40.8739 102.753 41.1856C102.753 41.5195 102.419 41.3526 101.751 40.6846ZM101.751 40.6846L101.551 40.7438C100.57 41.0227 99.8645 41.0447 99.434 40.8099C98.9748 40.5594 98.5574 40.2672 98.1816 39.9332C97.8059 39.5993 97.3885 39.3279 96.9293 39.1192C96.4701 38.9105 95.7395 38.9731 94.7377 39.307C94.4037 38.9731 94.2785 38.9731 94.3619 39.307C94.4454 39.641 94.5289 40.0585 94.6124 40.5594C94.6959 41.0603 94.6959 41.4987 94.6124 41.8744C94.5289 42.2501 94.1532 42.271 93.4853 41.937L93.5442 41.8152C93.8206 41.2232 93.8219 40.8881 93.5479 40.8099C93.2557 40.7264 92.9009 40.7264 92.4834 40.8099L91.231 41.0603C90.8136 41.1438 90.6049 41.0186 90.6049 40.6846C90.6049 39.5993 90.751 39.0357 91.0432 38.9939C91.3354 38.9522 91.6694 39.0148 92.0451 39.1818C92.4208 39.3488 92.7547 39.4114 93.047 39.3697C93.3392 39.3279 93.4853 38.8061 93.4853 37.8042L93.5855 37.7103C93.886 37.4473 94.1866 37.3534 94.4872 37.4285C94.8211 37.512 95.1551 37.6581 95.4891 37.8668C95.823 38.0755 96.157 38.2217 96.491 38.3051C96.8249 38.3886 97.1589 38.2217 97.4928 37.8042C97.4928 36.8023 97.2841 36.2805 96.8667 36.2388C96.4492 36.197 96.0318 36.2805 95.6143 36.4892C95.1969 36.698 94.8629 36.7814 94.6124 36.7397C94.3619 36.6979 94.4037 36.1344 94.7377 35.049C94.4037 35.049 94.0697 35.1116 93.7358 35.2369C93.4018 35.3621 93.1096 35.4247 92.8591 35.4247C92.6086 35.4247 92.3999 35.2995 92.2329 35.049C92.0659 34.7985 91.9825 34.3393 91.9825 33.6714L92.146 33.6766C92.4127 33.694 92.6504 33.7549 92.8591 33.8593C93.1096 33.9845 93.3601 34.0889 93.6105 34.1724C93.861 34.2558 94.1741 34.2767 94.5498 34.235C94.9255 34.1932 95.4473 34.0054 96.1152 33.6714C96.1152 34.0054 96.2614 34.2141 96.5536 34.2976C96.8458 34.3811 97.1589 34.4228 97.4928 34.4228C97.8268 34.4228 98.1399 34.4437 98.4321 34.4854C98.7243 34.5272 98.8704 34.715 98.8704 35.049C98.5365 36.1344 98.4947 36.9067 98.7452 37.3659C98.9957 37.8251 99.3505 38.1799 99.8097 38.4304C100.269 38.6809 100.707 38.9313 101.125 39.1818C101.542 39.4323 101.751 39.9332 101.751 40.6846Z" fill="#FF8A00"/>
</svg>
