<svg width="144" height="144" viewBox="0 0 144 144" fill="none" xmlns="http://www.w3.org/2000/svg">
<rect width="144" height="144" fill="#1E1D1D"/>
<path d="M103.518 112.839C103.814 111.953 104.035 110.863 104.183 109.571C104.331 108.278 104.405 106.93 104.405 105.527C104.405 104.124 104.331 102.776 104.183 101.484C104.035 100.191 103.814 99.0647 103.518 98.1045H61.7524C65.1498 93.8209 68.6026 89.6479 72.1108 85.5858C75.619 81.5237 79.1272 77.4985 82.6354 73.5102C86.1436 69.5219 89.6518 65.4967 93.16 61.4346C96.6682 57.3725 100.121 53.1996 103.518 48.9159C103.518 47.1433 103.666 45.1307 103.962 42.8781C104.257 40.6254 104.109 38.5759 103.518 36.7295C98.8655 36.1386 93.917 35.7509 88.6732 35.5662C83.4294 35.3816 78.0747 35.3262 72.6093 35.4001C67.1439 35.4739 61.7154 35.6401 56.3239 35.8986C50.9323 36.1571 45.7624 36.4341 40.8139 36.7295V50.1345C43.8421 50.5038 47.0364 50.7069 50.3969 50.7438C53.7574 50.7808 57.1732 50.7438 60.6445 50.633C64.1158 50.5223 67.6055 50.4115 71.1137 50.3007C74.6219 50.1899 78.0747 50.1345 81.4722 50.1345C74.6035 58.8496 67.5871 67.2878 60.4229 75.449C53.2588 83.6101 46.3163 92.0114 39.5953 100.653V112.839H103.518ZM93.6585 39.056H97.4252C97.4252 39.7207 96.9452 40.1084 95.985 40.2192C95.0249 40.33 94.2494 40.3854 93.6585 40.3854V39.056ZM73.9388 42.8227V40.3854C73.3479 40.3854 72.9971 40.6439 72.8863 41.1609C72.7755 41.6779 72.7201 42.2318 72.7201 42.8227C72.4247 42.2318 72 41.881 71.4461 41.7702C70.8922 41.6594 70.3198 41.5486 69.7289 41.4379C69.1381 41.3271 68.5472 41.1424 67.9564 40.8839C67.3655 40.6254 66.9224 40.0161 66.6269 39.056C67.5871 39.7207 68.5287 40.09 69.452 40.1638C70.3752 40.2377 71.2799 40.2377 72.1662 40.1638C73.0525 40.09 73.9572 40.0346 74.8804 39.9977C75.8036 39.9607 76.7453 40.09 77.7055 40.3854C77.41 40.9763 77.1146 41.3825 76.8192 41.604C76.5238 41.8256 76.2099 41.9733 75.8775 42.0472L74.8804 42.2688C74.5481 42.3426 74.2342 42.5272 73.9388 42.8227ZM56.767 44.0413L56.8991 44.0423C57.4104 44.0502 57.7172 44.1052 57.8195 44.2075C57.9303 44.3183 57.9857 44.706 57.9857 45.3707H56.767V44.0413ZM59.4813 40.1638C59.0751 40.2377 58.7981 40.1823 58.6504 39.9977C58.5027 39.813 58.5396 39.6099 58.7612 39.3883C58.9827 39.1668 59.5736 39.056 60.5337 39.056C60.2383 39.7207 59.8875 40.09 59.4813 40.1638ZM51.8925 44.0413L51.8858 43.8641C51.8681 43.6277 51.8149 43.3914 51.7263 43.155C51.6155 42.8596 51.5601 42.6011 51.5601 42.3795C51.5601 42.158 51.6524 41.9733 51.8371 41.8256C52.0217 41.6779 52.4095 41.604 53.0003 41.604C53.0003 40.9393 52.9449 40.5146 52.8342 40.33C52.7234 40.1454 52.5572 40.053 52.3356 40.053C52.114 40.053 51.8555 40.1084 51.5601 40.2192C51.2647 40.33 50.9693 40.3854 50.6738 40.3854C50.3784 39.7207 50.3415 39.3514 50.5631 39.2775C50.7846 39.2037 51.117 39.2037 51.5601 39.2775C52.0033 39.3514 52.4833 39.4253 53.0003 39.4991C53.5173 39.573 53.9605 39.4253 54.3298 39.056C54.3298 40.3115 54.0713 41.3086 53.5543 42.0472C53.0373 42.7857 52.4833 43.4505 51.8925 44.0413ZM44.4699 40.3854C44.4699 39.7207 44.7284 39.3329 45.2454 39.2222C45.7624 39.1114 46.3163 39.056 46.9071 39.056C46.9071 39.7207 46.6486 40.1084 46.1316 40.2192C45.6146 40.33 45.0607 40.3854 44.4699 40.3854ZM99.8625 41.604C99.5671 41.8995 99.3271 42.0103 99.1424 41.9364C98.9578 41.8625 98.7916 41.7518 98.6439 41.604C98.4962 41.4563 98.33 41.3455 98.1453 41.2717C97.9607 41.1978 97.7207 41.3086 97.4252 41.604C97.4252 41.3086 97.5545 41.0132 97.813 40.7178C98.0715 40.4223 98.3485 40.2008 98.6439 40.053C98.9393 39.9053 99.2163 39.8499 99.4748 39.8869C99.7333 39.9238 99.8625 40.09 99.8625 40.3854V41.604ZM50.6738 42.8227C50.083 42.8227 49.7137 42.638 49.566 42.2688C49.4921 42.0472 49.4552 41.8256 49.4552 41.604C50.0461 41.604 50.3969 41.6594 50.5077 41.7702C50.6184 41.881 50.6738 42.2318 50.6738 42.8227ZM97.4252 44.0413V42.8227C98.0161 42.2318 98.4223 42.0841 98.6439 42.3795C98.8655 42.675 99.2717 42.8227 99.8625 42.8227C99.8625 43.4135 99.604 43.7644 99.087 43.8751C98.57 43.9859 98.0161 44.0413 97.4252 44.0413ZM70.2828 46.4786C69.7658 46.8479 69.3596 46.8848 69.0642 46.5894C69.0642 45.9985 69.2858 45.5369 69.7289 45.2046C70.1721 44.8722 70.3936 44.0782 70.3936 42.8227C71.2799 42.8227 71.7784 43.0627 71.8892 43.5428C72 44.0229 71.8892 44.5399 71.5569 45.0938C71.2245 45.6477 70.7998 46.1093 70.2828 46.4786ZM72.7355 45.1246C72.7868 44.7347 72.9663 44.4475 73.274 44.2629L73.9388 44.0413C73.9388 44.4106 73.8834 44.6137 73.7726 44.6506C73.6618 44.6876 73.5141 44.706 73.3294 44.706C73.1448 44.706 72.9971 44.743 72.8863 44.8168C72.8171 44.863 72.7695 44.9524 72.7435 45.0851L72.7326 45.1511L72.7355 45.1246ZM94.8772 47.6972H93.6585V46.5894C94.2494 46.5894 94.6002 46.6263 94.711 46.7002C94.8218 46.774 94.8772 47.1064 94.8772 47.6972ZM98.7547 48.8605C98.5331 49.0451 98.2192 49.1005 97.813 49.0267C97.4068 48.9528 97.019 48.7866 96.6497 48.5281C96.2805 48.2696 96.0958 47.9927 96.0958 47.6972H98.6439C98.9393 48.2881 98.9762 48.6758 98.7547 48.8605ZM96.0958 51.4639H94.8772V50.1345H96.0958V51.4639ZM93.6585 53.9012V52.6826H94.8772C94.8772 52.9041 94.8403 53.1257 94.7664 53.3473C94.6187 53.7166 94.2494 53.9012 93.6585 53.9012ZM80.1427 61.213C80.4382 60.6222 80.6967 59.9759 80.9182 59.2743C81.1398 58.5727 81.4168 57.9633 81.7491 57.4463C82.0815 56.9293 82.4877 56.5601 82.9678 56.3385C83.4478 56.1169 84.131 56.1538 85.0173 56.4493C85.0173 55.7846 84.8696 55.3414 84.5742 55.1198C84.2787 54.8983 84.4264 54.4921 85.0173 53.9012C85.682 53.9012 86.3283 54.1597 86.956 54.6767C87.5838 55.1937 88.1931 55.7846 88.784 56.4493H86.3467C86.3467 56.7447 86.6052 56.9847 87.1222 57.1694C87.6392 57.354 88.1562 57.5571 88.6732 57.7787C89.1902 58.0003 89.6149 58.2772 89.9472 58.6096C90.2796 58.9419 90.2981 59.4035 90.0026 59.9944C89.1163 59.1081 88.2116 58.6096 87.2884 58.4988C86.3652 58.388 85.4789 58.4803 84.6295 58.7758C83.7802 59.0712 82.9678 59.4774 82.1923 59.9944C81.4168 60.5114 80.7336 60.9176 80.1427 61.213ZM92.4399 55.1198H91.3321V53.9012H92.4399V55.1198ZM90.0026 57.5571C90.0026 57.0401 90.2242 56.7078 90.6673 56.5601C90.8889 56.4862 91.1105 56.4493 91.3321 56.4493C91.3321 56.9663 91.1105 57.2986 90.6673 57.4463C90.4458 57.5202 90.2242 57.5571 90.0026 57.5571ZM86.2913 61.8778C85.8112 61.8778 85.405 61.73 85.0727 61.4346C84.7403 61.1392 84.7219 60.6591 85.0173 59.9944C85.4604 59.7728 85.8666 59.6251 86.2359 59.5513C86.6052 59.4774 86.9191 59.4589 87.1776 59.4959C87.4361 59.5328 87.5653 59.699 87.5653 59.9944C87.8608 60.6591 87.8423 61.1392 87.51 61.4346C87.1776 61.73 86.7714 61.8778 86.2913 61.8778ZM73.8696 73.4719C73.589 72.8924 73.2613 72.5174 72.8863 72.347C72.4801 72.1623 72.1293 72.1623 71.8338 72.347C71.5384 72.5316 71.3538 72.8455 71.2799 73.2886C71.2061 73.7318 71.3168 74.2488 71.6123 74.8396C70.6521 74.8396 70.1167 74.6365 70.0059 74.2303C69.8951 73.8241 69.9136 73.344 70.0613 72.7901C70.209 72.2362 70.3752 71.6823 70.5598 71.1283C70.6166 70.9579 70.6507 70.7997 70.6621 70.6537L70.6633 70.6126L70.6741 70.6235C70.7987 70.7438 70.9649 70.8304 71.1726 70.8832L71.2799 70.9068C71.8708 71.0175 72.757 71.0729 73.9388 71.0729C74.2342 70.1866 74.4927 69.2265 74.7143 68.1925C74.9358 67.1585 75.2128 66.1799 75.5451 65.2567C75.8775 64.3335 76.3022 63.5211 76.8192 62.8194C77.3362 62.1178 78.0378 61.5823 78.9241 61.213C78.6287 61.8778 78.6471 62.3209 78.9795 62.5425C79.3118 62.764 79.755 62.9671 80.3089 63.1518C80.8628 63.3364 81.3798 63.5395 81.8599 63.7611C82.34 63.9827 82.58 64.3889 82.58 64.9797C81.9892 64.9797 81.5091 64.9243 81.1398 64.8136C80.7705 64.7028 80.4382 64.5551 80.1427 64.3704C79.8473 64.1858 79.515 64.0381 79.1457 63.9273C78.7764 63.8165 78.2963 63.7611 77.7055 63.7611C77.41 64.0565 77.17 64.4812 76.9854 65.0351C76.8007 65.5891 76.6345 66.1799 76.4868 66.8077C76.3391 67.4355 76.1729 68.0263 75.9883 68.5803C75.8036 69.1342 75.5636 69.5589 75.2682 69.8543C75.2682 70.1497 75.3974 70.2605 75.6559 70.1866C75.9144 70.1128 76.1914 70.002 76.4868 69.8543C76.7822 69.7066 77.0592 69.5958 77.3177 69.5219C77.5762 69.4481 77.7055 69.5589 77.7055 69.8543C77.7055 70.519 77.6316 70.8883 77.4839 70.9621C77.3362 71.036 77.1515 71.036 76.93 70.9621C76.7084 70.8883 76.4499 70.8144 76.1545 70.7406C75.859 70.6667 75.5636 70.7775 75.2682 71.0729C75.2682 71.7376 75.5267 72.1254 76.0437 72.2362C76.5607 72.347 77.1146 72.4024 77.7055 72.4024C77.1146 72.9932 76.7638 73.5841 76.653 74.1749C76.5422 74.7658 76.4868 75.3566 76.4868 75.9475C75.8221 75.9475 75.4344 75.7628 75.3236 75.3936C75.2128 75.0243 75.1574 74.655 75.1574 74.2857C75.1574 73.9164 75.1205 73.6395 75.0466 73.4548C74.9728 73.2702 74.6035 73.3256 73.9388 73.621L73.8696 73.4719ZM83.7986 63.7611C83.7986 63.1702 83.5955 62.764 83.1893 62.5425C82.7831 62.3209 82.58 61.8778 82.58 61.213C83.1709 61.213 83.5771 61.3423 83.7986 61.6008C84.0202 61.8593 84.2233 62.0993 84.408 62.3209C84.5926 62.5425 84.7957 62.7086 85.0173 62.8194C85.2389 62.9302 85.682 62.8379 86.3467 62.5425C86.3467 63.1333 86.0697 63.4841 85.5158 63.5949C84.9619 63.7057 84.3895 63.7611 83.7986 63.7611ZM83.9648 65.6445C83.854 65.7922 83.7986 65.5706 83.7986 64.9797C84.0941 64.3889 84.2603 64.1673 84.2972 64.315C84.3341 64.4627 84.3156 64.6843 84.2418 64.9797C84.1679 65.2752 84.0756 65.4967 83.9648 65.6445ZM80.1427 69.8543C80.1427 69.2634 80.3089 68.6541 80.6413 68.0263C80.9736 67.3986 80.8074 66.7523 80.1427 66.0876H82.58C81.9892 66.7523 81.6014 67.3986 81.4168 68.0263C81.2321 68.6541 80.8074 69.2634 80.1427 69.8543ZM72.277 70.0205C72.1293 70.279 71.9077 70.2236 71.6123 69.8543C71.6123 69.2634 71.6492 68.8572 71.7231 68.6357C71.7969 68.4141 72.1293 68.0079 72.7201 67.417C72.7201 68.0817 72.6832 68.6357 72.6093 69.0788C72.5355 69.4481 72.4247 69.762 72.277 70.0205ZM67.8456 73.621C67.8456 73.0301 68.0302 72.6609 68.3995 72.5131C68.6211 72.4393 68.8426 72.4024 69.0642 72.4024C69.0642 72.9932 69.0088 73.344 68.898 73.4548C68.7872 73.5656 68.4364 73.621 67.8456 73.621ZM69.0628 77.0225C69.0473 76.232 68.9001 75.8367 68.6211 75.8367C68.3256 75.8367 67.9563 76.0029 67.5132 76.3352C67.0701 76.6676 66.5531 76.9815 65.9622 77.2769C65.3714 77.5723 64.7805 77.5354 64.1896 77.1661C64.7805 76.5753 65.3344 76.1875 65.8514 76.0029C66.3684 75.8182 66.6269 75.4305 66.6269 74.8396C66.9224 74.5442 67.1624 74.378 67.347 74.3411C67.5317 74.3042 67.7532 74.3226 68.0117 74.3965C68.2702 74.4703 68.5657 74.5627 68.898 74.6735C69.2304 74.7842 69.7289 74.8396 70.3936 74.8396C70.3936 75.4305 70.3382 75.966 70.2274 76.446C70.1167 76.9261 69.7289 77.1661 69.0642 77.1661L69.0628 77.0225ZM70.3936 79.7142C70.0243 79.0495 69.8951 78.6248 70.0059 78.4402C70.1167 78.2555 70.3198 78.1632 70.6152 78.1632C70.9106 78.1632 71.2614 78.2186 71.6677 78.3294C72.0739 78.4402 72.4247 78.4955 72.7201 78.4955C72.7201 79.0864 72.4801 79.4372 72 79.548C71.5199 79.6588 70.9845 79.7142 70.3936 79.7142ZM64.1896 79.7142L64.0567 79.7098C63.8794 79.6979 63.7022 79.6625 63.5249 79.6034C63.0818 79.4557 62.8602 79.0864 62.8602 78.4955H64.1896V79.7142ZM61.7524 82.1515L61.7531 82.0088C61.7588 81.5038 61.7955 81.2006 61.8632 81.099C61.937 80.9882 62.2694 80.9328 62.8602 80.9328V82.1515H61.7524ZM59.3151 85.8074H57.9857V84.6995H59.3151V85.8074ZM65.4083 85.8074C65.4083 85.2904 65.5929 84.958 65.9622 84.8103C66.1838 84.7365 66.4054 84.6995 66.6269 84.6995C66.6269 85.2165 66.4054 85.5489 65.9622 85.6966C65.7406 85.7705 65.556 85.8074 65.4083 85.8074ZM60.5337 87.026C60.5337 86.4352 60.7184 86.0659 61.0877 85.9182C61.3092 85.8443 61.5308 85.8074 61.7524 85.8074C61.7524 86.3982 61.5308 86.7675 61.0877 86.9152C60.8661 86.9891 60.6814 87.026 60.5337 87.026ZM64.8544 87.6907C64.4851 87.8384 64.0973 87.8754 63.6911 87.8015C63.2849 87.7277 62.971 87.5246 62.7494 87.1922C62.5279 86.8598 62.5648 86.3982 62.8602 85.8074C63.5249 85.8074 63.8942 85.9366 63.9681 86.1951C64.0419 86.4536 64.0789 86.6937 64.0789 86.9152C64.0789 87.1368 64.1343 87.2845 64.245 87.3584C64.3558 87.4322 64.7436 87.3214 65.4083 87.026C65.4083 87.3214 65.2236 87.543 64.8544 87.6907ZM57.9857 89.5741L57.9826 89.435C57.9556 88.8472 57.7535 88.4504 57.3764 88.2447C56.9701 88.0231 56.767 87.6169 56.767 87.026C58.0226 87.026 58.9643 87.1368 59.5921 87.3584C60.2198 87.5799 60.5337 88.3185 60.5337 89.5741H57.9857ZM61.7642 89.3598L61.7678 89.3279C61.819 88.9381 61.9986 88.6509 62.3063 88.4662C62.454 88.3924 62.6387 88.3185 62.8602 88.2447C62.8602 88.6139 62.8048 88.817 62.694 88.854C62.5833 88.8909 62.454 88.9094 62.3063 88.9094C62.1586 88.9094 62.0293 88.9463 61.9186 89.0202C61.8493 89.0663 61.8017 89.1558 61.7757 89.2885L61.7642 89.3598ZM54.3298 89.5741C54.3298 89.2787 54.3851 89.094 54.4959 89.0202C54.6067 88.9463 54.699 88.9648 54.7729 89.0755C54.8468 89.1863 54.8652 89.2971 54.8283 89.4079C54.7914 89.5187 54.6252 89.5741 54.3298 89.5741ZM61.7524 92.0114H60.5337V90.7927H61.7524V92.0114ZM59.3151 92.0114H57.9857V90.7927L58.1239 90.7936C58.6597 90.8004 58.9921 90.8478 59.1209 90.936L59.1489 90.9589C59.2597 91.0697 59.3151 91.4205 59.3151 92.0114ZM56.767 93.1192H55.5484V92.0114H56.767V93.1192ZM59.9798 94.0609C59.8321 94.0978 59.6105 93.7839 59.3151 93.1192C59.6105 92.8238 59.8321 92.7869 59.9798 93.0084C60.1275 93.23 60.2014 93.4516 60.2014 93.6731C60.2014 93.8947 60.1275 94.024 59.9798 94.0609ZM53.0003 94.5594H51.8925V93.1192C52.4833 93.1192 52.8157 93.1746 52.8895 93.2854C52.9634 93.3962 53.0003 93.8209 53.0003 94.5594ZM56.767 96.8859V98.1045H55.5484V96.8859H56.767ZM48.015 98.1045H46.9071C46.9071 97.5137 47.1841 97.1629 47.738 97.0521C48.292 96.9413 48.8643 96.8859 49.4552 96.8859C49.7506 97.1813 49.8429 97.4214 49.7322 97.606C49.6214 97.7907 49.4183 97.9199 49.1228 97.9938C48.8274 98.0676 48.4581 98.1045 48.015 98.1045ZM47.6272 100.763C47.4426 100.985 47.2026 100.948 46.9071 100.653V99.434C47.2026 99.1385 47.4426 99.0832 47.6272 99.2678C47.8119 99.4524 47.9042 99.6925 47.9042 99.9879C47.9042 100.283 47.8119 100.542 47.6272 100.763ZM53.0003 100.653C53.0003 100.062 53.2219 99.6925 53.665 99.5448C53.8866 99.4709 54.1082 99.434 54.3298 99.434C54.3298 100.025 54.2744 100.376 54.1636 100.486C54.0528 100.597 53.665 100.653 53.0003 100.653ZM50.6184 101.484C50.4338 101.52 50.0461 101.243 49.4552 100.653C49.7506 100.357 50.0276 100.302 50.2861 100.486C50.5446 100.671 50.7108 100.874 50.7846 101.096C50.8585 101.317 50.8031 101.447 50.6184 101.484ZM45.6885 101.871H43.362C43.362 101.28 43.602 100.93 44.0821 100.819C44.5622 100.708 45.0976 100.653 45.6885 100.653V101.871ZM52.5018 102.536C52.391 102.684 52.1879 102.462 51.8925 101.871C52.1879 101.28 52.391 101.059 52.5018 101.207C52.6126 101.354 52.668 101.576 52.668 101.871C52.668 102.167 52.6126 102.388 52.5018 102.536ZM61.7524 104.198V101.871C62.0478 101.576 62.2509 101.52 62.3617 101.705C62.4725 101.89 62.5279 102.167 62.5279 102.536C62.5279 102.905 62.4725 103.275 62.3617 103.644C62.2509 104.013 62.0478 104.198 61.7524 104.198ZM98.6439 102.979H94.8772C95.1726 102.684 95.5973 102.407 96.1512 102.148C96.7051 101.89 97.2221 101.724 97.7022 101.65C98.1823 101.576 98.5331 101.631 98.7547 101.816C98.9762 102.001 98.9393 102.388 98.6439 102.979ZM76.4868 102.979H75.2682V101.871H76.4868V102.979ZM59.3151 102.979C59.3151 102.462 59.4997 102.13 59.869 101.982C60.0906 101.908 60.3122 101.871 60.5337 101.871C60.5337 102.388 60.3122 102.721 59.869 102.868C59.6474 102.942 59.4628 102.979 59.3151 102.979ZM80.1427 105.527L80.1411 105.709C80.1311 106.271 80.0763 106.967 79.9766 107.798C79.8658 108.721 79.515 109.183 78.9241 109.183C79.2195 108.592 79.3303 108.186 79.2565 107.964C79.1826 107.743 79.0349 107.54 78.8133 107.355C78.5917 107.17 78.3517 106.967 78.0932 106.746C77.8347 106.524 77.7055 106.118 77.7055 105.527H80.1427ZM81.4722 102.979C81.4722 102.388 81.5091 102.056 81.5829 101.982C81.6568 101.908 81.9892 101.871 82.58 101.871C82.58 102.462 82.5431 102.794 82.4692 102.868C82.3954 102.942 82.063 102.979 81.4722 102.979ZM90.0026 102.979H88.784V101.871H90.0026V102.979ZM56.767 106.746C55.8069 106.746 55.253 106.506 55.1053 106.026C54.9575 105.546 54.9391 105.029 55.0499 104.475C55.1606 103.921 55.216 103.459 55.216 103.09C55.216 102.721 54.9206 102.684 54.3298 102.979C54.6252 102.388 54.9206 102.056 55.216 101.982C55.5115 101.908 55.8254 101.945 56.1577 102.093C56.4901 102.241 56.804 102.425 57.0994 102.647C57.3948 102.868 57.6902 102.979 57.9857 102.979C57.6902 102.979 57.5056 103.127 57.4317 103.422C57.3579 103.718 57.321 104.05 57.321 104.419C57.321 104.789 57.3025 105.195 57.2656 105.638C57.2286 106.081 57.0625 106.45 56.767 106.746ZM69.0642 102.979H66.6269C66.6269 102.684 66.8116 102.481 67.1809 102.37C67.5501 102.259 67.9379 102.204 68.3441 102.204C68.7503 102.204 69.0457 102.259 69.2304 102.37C69.415 102.481 69.3596 102.684 69.0642 102.979ZM78.9241 104.198H77.7055V102.979C78.2225 102.462 78.5917 102.314 78.8133 102.536C78.8872 102.61 78.9241 102.758 78.9241 102.979V104.198ZM48.2366 104.198V102.979C48.8274 102.684 49.2706 102.591 49.566 102.702C49.8614 102.813 50.0091 102.979 50.0091 103.201C50.0091 103.422 49.8614 103.644 49.566 103.865C49.2706 104.087 48.8274 104.198 48.2366 104.198ZM93.6585 104.198C93.6585 103.607 93.8432 103.238 94.2125 103.09C94.434 103.016 94.6556 102.979 94.8772 102.979C94.8772 103.57 94.8218 103.921 94.711 104.032C94.6002 104.142 94.2494 104.198 93.6585 104.198ZM65.4083 104.198H64.1896V102.979C64.7805 102.979 65.1313 103.034 65.2421 103.145C65.3529 103.256 65.4083 103.607 65.4083 104.198ZM94.8772 106.746H91.3321C91.3321 106.155 91.2767 105.804 91.1659 105.693C91.0551 105.583 90.6673 105.527 90.0026 105.527C90.6673 104.862 91.092 104.272 91.2767 103.755C91.4613 103.238 91.849 102.979 92.4399 102.979V105.527C93.0308 105.527 93.5847 105.583 94.1017 105.693C94.6187 105.804 94.8772 106.155 94.8772 106.746ZM43.3733 103.958C43.4185 103.506 43.5994 103.216 43.9159 103.09C44.0636 103.016 44.2483 102.979 44.4699 102.979C44.4699 103.57 44.2852 103.773 43.9159 103.588C43.6118 103.436 43.4329 103.547 43.3793 103.921L43.3706 103.994L43.3733 103.958ZM50.6748 104.066C50.6827 103.554 50.7378 103.248 50.84 103.145C50.9508 103.034 51.3016 102.979 51.8925 102.979C51.8925 103.275 51.8371 103.459 51.7263 103.533C51.6155 103.607 51.4678 103.644 51.2832 103.644C51.0985 103.644 50.9508 103.662 50.84 103.699C50.7292 103.736 50.6738 103.902 50.6738 104.198V104.183L50.6748 104.066ZM99.5302 103.921C99.3825 104.105 99.1978 104.161 98.9762 104.087C98.7547 104.013 98.6439 103.644 98.6439 102.979L98.7756 102.981C99.2419 102.995 99.5232 103.089 99.6193 103.262L99.641 103.311C99.7148 103.533 99.6779 103.736 99.5302 103.921ZM67.2916 105.638C67.1439 105.86 66.9224 105.823 66.6269 105.527V104.198C66.9224 103.902 67.1439 103.865 67.2916 104.087C67.4394 104.309 67.5132 104.567 67.5132 104.862C67.5132 105.158 67.4394 105.416 67.2916 105.638ZM54.3298 105.527H53.0003V104.198H54.3298V105.527ZM97.4252 105.527H96.0958V104.198H97.4252V105.527ZM51.8925 106.746L51.7179 106.801C50.916 107.045 50.291 107.063 49.8429 106.857C49.3629 106.635 49.1228 106.377 49.1228 106.081C49.1228 105.786 49.3629 105.546 49.8429 105.361C50.323 105.176 51.0062 105.232 51.8925 105.527V106.746ZM59.3151 106.746L59.1769 106.745C58.5964 106.738 58.2547 106.682 58.1518 106.58C58.0411 106.469 57.9857 106.118 57.9857 105.527H59.3151V106.746ZM65.0759 107.078C64.7805 107.078 64.4112 107.023 63.9681 106.912C63.5249 106.801 63.1557 106.746 62.8602 106.746V105.527H65.4083C65.7037 106.118 65.796 106.524 65.6852 106.746C65.5745 106.967 65.3714 107.078 65.0759 107.078ZM72.7201 106.746H71.6123V105.527H72.7201V106.746ZM86.3467 106.746H85.0173V105.527C85.682 105.527 86.0697 105.583 86.1805 105.693C86.2913 105.804 86.3467 106.155 86.3467 106.746ZM98.6439 106.746L98.58 106.679C98.3414 106.417 98.3073 106.217 98.4777 106.081C98.6623 105.933 98.9024 105.86 99.1978 105.86C99.4932 105.86 99.7517 105.933 99.9733 106.081C100.195 106.229 100.158 106.45 99.8625 106.746H98.6439ZM48.2366 107.964L48.097 108.024C47.5042 108.267 47.0707 108.302 46.7964 108.131C46.5009 107.946 46.3532 107.687 46.3532 107.355C46.3532 107.023 46.5009 106.764 46.7964 106.58C47.0918 106.395 47.5718 106.45 48.2366 106.746V107.964ZM68.0415 108.69L68.0117 108.685C67.901 108.648 67.8456 108.001 67.8456 106.746C68.141 106.45 68.3072 106.524 68.3441 106.967C68.381 107.411 68.3626 107.817 68.2887 108.186C68.2148 108.555 68.1225 108.721 68.0117 108.685L68.0415 108.69ZM77.7055 109.183C76.4499 109.183 75.5082 108.925 74.8804 108.408C74.2526 107.891 73.9388 107.337 73.9388 106.746C75.1943 106.746 76.136 107.004 76.7638 107.521C77.3916 108.038 77.7055 108.592 77.7055 109.183ZM90.0026 107.964H88.784V106.746H90.0026V107.964ZM84.4634 108.906C84.3156 108.943 84.0941 108.629 83.7986 107.964C84.0941 107.669 84.3156 107.614 84.4634 107.798C84.6111 107.983 84.6849 108.204 84.6849 108.463C84.6849 108.721 84.6111 108.869 84.4634 108.906ZM57.0994 109.515C56.6562 109.515 56.1577 109.46 55.6038 109.349C55.0499 109.238 54.6252 109.183 54.3298 109.183V107.964H57.9857C58.2811 108.629 58.318 109.054 58.0965 109.238C57.8749 109.423 57.5425 109.515 57.0994 109.515ZM71.6123 109.183H70.3936V107.964C70.9845 107.964 71.3353 108.02 71.4461 108.131C71.5569 108.241 71.6123 108.592 71.6123 109.183ZM91.3321 109.183V107.964H93.6585C93.6585 108.555 93.4185 108.906 92.9384 109.017C92.4584 109.128 91.9229 109.183 91.3321 109.183ZM85.0173 42.8227V44.0413C85.3127 44.4106 85.6266 44.5583 85.959 44.4845C86.2913 44.4106 86.5683 44.2814 86.7899 44.0967C87.0114 43.9121 87.1961 43.7828 87.3438 43.709C87.4915 43.6351 87.5653 43.7459 87.5653 44.0413C87.5653 44.706 87.3807 45.0199 87.0114 44.983C86.6421 44.9461 86.2544 44.8907 85.8482 44.8168C85.442 44.743 85.1281 44.7799 84.9065 44.9276C84.6849 45.0753 84.7219 45.6292 85.0173 46.5894H81.4722C82.063 45.9985 82.6539 45.223 83.2447 44.2629C83.8356 43.3027 84.4264 42.8227 85.0173 42.8227ZM76.4868 45.3707C76.4868 45.5923 76.4499 45.8139 76.376 46.0355C76.2283 46.4047 75.859 46.5894 75.2682 46.5894V45.3707H76.4868ZM91.3321 44.0413L91.1003 44.0383C89.96 44.008 89.0956 43.7505 88.507 43.2658C87.8792 42.7488 87.5653 42.1949 87.5653 41.604C87.8608 41.8995 88.2301 42.0841 88.6732 42.158C89.1163 42.2318 89.5226 42.3057 89.8918 42.3795C90.2611 42.4534 90.5935 42.6011 90.8889 42.8227C91.1843 43.0442 91.3321 43.4505 91.3321 44.0413ZM72.7201 75.9475L72.7193 76.0902C72.7137 76.5951 72.677 76.8984 72.6093 76.9999C72.5355 77.1107 72.2031 77.1661 71.6123 77.1661V75.9475H72.7201ZM69.0642 77.1661C69.3596 77.5354 69.415 77.7939 69.2304 77.9416C69.0457 78.0893 68.8057 78.1632 68.5103 78.1632C68.2148 78.1632 67.9564 78.0893 67.7348 77.9416C67.5132 77.7939 67.5501 77.5354 67.8456 77.1661H69.0642ZM50.6738 95.6673H48.2366C48.8274 95.0764 49.2336 94.7441 49.4552 94.6702C49.6768 94.5963 50.083 94.5594 50.6738 94.5594V95.6673ZM56.767 44.0413H55.5484V46.5894C54.9575 46.5894 54.3851 46.7371 53.8312 47.0325C53.2773 47.3279 53.0003 47.1802 53.0003 46.5894C53.0003 45.9247 53.1296 45.4815 53.3881 45.26C53.6466 45.0384 53.8866 44.8537 54.1082 44.706C54.3298 44.5583 54.4959 44.3737 54.6067 44.1521C54.7175 43.9305 54.6252 43.4874 54.3298 42.8227C54.9206 42.8227 55.2714 42.7488 55.3822 42.6011C55.493 42.4534 55.5115 42.2688 55.4376 42.0472C55.3638 41.8256 55.2899 41.5671 55.216 41.2717C55.1422 40.9763 55.253 40.6808 55.5484 40.3854C56.804 40.9763 58.0041 41.3825 59.1489 41.604C60.2937 41.8256 61.1615 42.2318 61.7524 42.8227C62.3432 42.8227 62.731 42.7119 62.9156 42.4903C63.1003 42.2688 63.1926 41.9733 63.1926 41.604C63.1926 41.3086 63.0818 40.9024 62.8602 40.3854C63.5249 40.3854 63.9681 40.1638 64.1896 39.7207C64.4112 39.2775 64.8174 39.056 65.4083 39.056V41.604C65.9991 41.3086 66.4054 41.1978 66.6269 41.2717C66.8485 41.3455 67.0516 41.4933 67.2362 41.7148C67.4209 41.9364 67.624 42.1764 67.8456 42.4349C68.0671 42.6934 68.4733 42.8227 69.0642 42.8227C69.0642 43.4874 68.8796 43.9305 68.5103 44.1521C68.141 44.3737 67.7163 44.5583 67.2362 44.706C66.7562 44.8537 66.3315 45.0384 65.9622 45.26C65.5929 45.4815 65.4083 45.9247 65.4083 46.5894C64.7436 46.5894 64.3004 46.4786 64.0789 46.257C63.8573 46.0355 63.6727 45.8323 63.5249 45.6477C63.3772 45.4631 63.1926 45.4077 62.971 45.4815C62.7494 45.5554 62.3432 45.9247 61.7524 46.5894C61.4569 46.294 61.3462 46.0539 61.42 45.8693C61.4939 45.6846 61.6416 45.5185 61.8632 45.3707C62.0847 45.223 62.3063 45.0568 62.5279 44.8722C62.7494 44.6876 62.8602 44.4106 62.8602 44.0413C62.2694 43.4505 61.8078 43.2474 61.4754 43.432C61.1431 43.6166 60.8661 43.949 60.6445 44.4291C60.4229 44.9091 60.2198 45.3892 60.0352 45.8693C59.8506 46.3493 59.6105 46.5894 59.3151 46.5894C59.3151 45.3338 59.2597 44.3921 59.1489 43.7644C59.0381 43.1366 58.6504 42.8227 57.9857 42.8227C57.3948 42.8227 57.044 42.8781 56.9332 42.9889C56.8224 43.0996 56.767 43.4505 56.767 44.0413ZM51.8925 44.0413L51.6914 44.2602C51.1443 44.8364 50.5097 45.3543 49.7876 45.8139C48.9751 46.3309 47.6088 46.5894 45.6885 46.5894C45.9839 45.9247 46.0947 45.3523 46.0209 44.8722C45.947 44.3921 45.7993 43.9675 45.5777 43.5982C45.3561 43.2289 45.1161 42.8781 44.8576 42.5457C44.5991 42.2134 44.4699 41.8995 44.4699 41.604C45.7254 42.1949 46.9625 42.7488 48.1812 43.2658C49.3998 43.7828 50.6369 44.0413 51.8925 44.0413ZM64.1896 79.7142L64.3129 79.7114C64.8321 79.6869 65.1603 79.5032 65.2975 79.1603C65.3714 78.9387 65.4083 78.7171 65.4083 78.4955C65.7037 78.4955 65.9438 78.6248 66.1284 78.8833C66.313 79.1418 66.5161 79.3818 66.7377 79.6034C66.9593 79.825 67.2547 79.9727 67.624 80.0465C67.9933 80.1204 68.4733 80.0096 69.0642 79.7142C69.0642 80.305 69.0088 80.7851 68.898 81.1544C68.7872 81.5237 68.6395 81.8191 68.4549 82.0407C68.2702 82.2622 68.1225 82.4838 68.0117 82.7054C67.901 82.927 67.8456 83.1855 67.8456 83.4809C67.2547 83.1855 66.7746 83.0747 66.4054 83.1485C66.0361 83.2224 65.7037 83.3701 65.4083 83.5917C65.1129 83.8132 64.7805 84.0533 64.4112 84.3118C64.0419 84.5703 63.5249 84.6995 62.8602 84.6995C63.5249 84.1087 63.9127 83.444 64.0235 82.7054C64.1343 81.9668 64.1896 80.9698 64.1896 79.7142ZM61.7524 82.1515V84.6995C61.1615 84.6995 60.6076 84.441 60.0906 83.924C59.5736 83.407 59.3151 82.8162 59.3151 82.1515H61.7524ZM57.9857 89.5741V90.7927H55.5484C55.5484 89.5372 55.8069 88.854 56.3239 88.7432C56.8409 88.6324 57.3948 88.9094 57.9857 89.5741ZM56.767 96.8859L56.8272 96.7624C57.0746 96.2407 57.1469 95.8941 57.044 95.7227C56.9332 95.538 56.7301 95.4457 56.4347 95.4457C56.1392 95.4457 55.7884 95.4826 55.3822 95.5565C54.976 95.6303 54.6252 95.6673 54.3298 95.6673L54.2642 95.5455C53.9548 94.9504 53.9212 94.5663 54.1636 94.3932C54.4221 94.2086 54.7729 94.1347 55.216 94.1717C55.6592 94.2086 56.1577 94.2825 56.7116 94.3932C57.2656 94.504 57.6902 94.5594 57.9857 94.5594V96.8859H56.767ZM45.6885 101.871L45.7554 101.807C46.0176 101.569 46.2169 101.535 46.3532 101.705C46.5009 101.89 46.5748 102.13 46.5748 102.425C46.5748 102.721 46.5009 102.961 46.3532 103.145C46.2055 103.33 45.9839 103.275 45.6885 102.979V101.871ZM80.1427 105.527V104.198C80.1427 103.607 80.1981 103.256 80.3089 103.145C80.4197 103.034 80.8074 102.979 81.4722 102.979L81.476 103.064C81.4967 103.283 81.6001 103.431 81.7862 103.508L81.8599 103.533C82.1184 103.607 82.3769 103.644 82.6354 103.644C82.8939 103.644 83.1524 103.662 83.4109 103.699C83.6694 103.736 83.7986 103.902 83.7986 104.198V104.193V101.871C84.4122 101.871 84.837 101.966 85.073 102.154L85.1281 102.204C85.3496 102.425 85.5343 102.647 85.682 102.868C85.8297 103.09 86.0144 103.238 86.2359 103.311C86.4575 103.385 86.9006 103.275 87.5653 102.979V104.198C87.2699 104.198 87.0299 104.142 86.8452 104.032C86.6606 103.921 86.439 103.828 86.1805 103.755C85.922 103.681 85.6266 103.662 85.2943 103.699C84.9619 103.736 84.4634 103.902 83.7986 104.198C83.7986 105.453 83.5955 106.45 83.1893 107.189C82.7831 107.928 82.58 108.592 82.58 109.183C82.063 109.183 81.7307 108.998 81.5829 108.629C81.5091 108.408 81.4722 108.186 81.4722 107.964C81.4722 107.374 81.5091 106.967 81.5829 106.746C81.6568 106.524 81.9892 106.118 82.58 105.527H80.1427ZM69.0642 102.979H71.6123C71.6123 103.275 71.5569 103.459 71.4461 103.533C71.3353 103.607 71.1876 103.644 71.0029 103.644C70.8183 103.644 70.6706 103.662 70.5598 103.699C70.449 103.736 70.3936 103.902 70.3936 104.198C69.7289 104.198 69.3412 104.142 69.2304 104.032C69.1196 103.921 69.0642 103.57 69.0642 102.979ZM44.4699 105.527L44.5338 105.594C44.7724 105.856 44.8065 106.056 44.636 106.192C44.4514 106.34 44.2114 106.413 43.9159 106.413C43.6205 106.413 43.362 106.34 43.1404 106.192C42.9189 106.044 42.9927 105.823 43.362 105.527H44.4699ZM48.2366 104.198L48.2339 104.347C48.213 104.929 48.0661 105.323 47.7934 105.527C47.498 105.749 47.1656 105.86 46.7964 105.86C46.4271 105.86 46.0209 105.804 45.5777 105.693C45.1346 105.583 44.7653 105.527 44.4699 105.527L44.4722 105.378C44.4905 104.796 44.619 104.402 44.8576 104.198C45.1161 103.976 45.4485 103.865 45.8547 103.865C46.2609 103.865 46.6671 103.921 47.0733 104.032C47.4795 104.142 47.8673 104.198 48.2366 104.198ZM94.8772 106.746L95.1259 106.749C95.6142 106.763 96.0483 106.817 96.4282 106.912C96.8713 107.023 96.7605 107.374 96.0958 107.964H94.8772V106.746ZM51.8925 106.746L52.0242 106.747C52.5329 106.755 52.8214 106.81 52.8895 106.912C52.9634 107.023 53.0003 107.374 53.0003 107.964H51.8925V106.746ZM61.7524 107.964H64.1896C64.4851 108.629 64.5774 109.054 64.4666 109.238C64.3558 109.423 64.1527 109.515 63.8573 109.515C63.5619 109.515 63.211 109.46 62.8048 109.349C62.3986 109.238 62.0478 109.183 61.7524 109.183V107.964ZM59.3151 106.746L59.4924 106.739C59.7287 106.721 59.965 106.668 60.2014 106.58C60.4968 106.469 60.7553 106.413 60.9769 106.413C61.1984 106.413 61.3831 106.524 61.5308 106.746C61.6785 106.967 61.7524 107.374 61.7524 107.964H59.3151V106.746ZM98.6439 106.746L98.6426 106.922C98.6296 107.778 98.5192 108.311 98.3115 108.518C98.09 108.74 97.8868 108.777 97.7022 108.629C97.5176 108.481 97.4622 108.204 97.536 107.798C97.6099 107.392 97.9792 107.041 98.6439 106.746ZM48.2366 107.964H50.6738C50.9693 108.629 51.0616 109.054 50.9508 109.238C50.84 109.423 50.6369 109.515 50.3415 109.515C50.0461 109.515 49.6952 109.46 49.289 109.349C48.8828 109.238 48.532 109.183 48.2366 109.183V107.964ZM82.58 41.604V44.0413C81.9892 43.7459 81.5091 43.6536 81.1398 43.7644C80.7705 43.8751 80.4382 44.0967 80.1427 44.4291C79.8473 44.7614 79.515 45.1307 79.1457 45.5369C78.7764 45.9431 78.2963 46.294 77.7055 46.5894C77.7055 46.1462 77.6685 45.777 77.5947 45.4815C77.5208 45.26 77.3916 45.0938 77.2069 44.983C77.0223 44.8722 76.7822 45.0015 76.4868 45.3707V42.8227C76.7822 42.8227 77.0223 42.8781 77.2069 42.9889C77.3916 43.0996 77.5947 43.2474 77.8162 43.432C78.0378 43.6166 78.3332 43.7644 78.7025 43.8751C79.0718 43.9859 79.5519 44.0413 80.1427 44.0413C79.2565 43.4505 78.8133 42.9704 78.8133 42.6011C78.8133 42.2318 78.961 41.8995 79.2565 41.604C79.5519 41.3086 79.8473 40.9763 80.1427 40.607C80.4382 40.2377 80.4382 39.7207 80.1427 39.056H81.4722C81.4722 39.4253 81.4168 39.7576 81.306 40.053C81.1952 40.3485 81.1398 40.607 81.1398 40.8285C81.1398 41.0501 81.2321 41.2348 81.4168 41.3825C81.6014 41.5302 81.9892 41.604 82.58 41.604ZM90.0026 40.3854H86.3467L86.3513 40.3062C86.3818 40.0468 86.5649 39.8332 86.9006 39.6653C87.2699 39.4807 87.6946 39.3883 88.1747 39.3883C88.6547 39.3883 89.0794 39.4807 89.4487 39.6653C89.818 39.8499 90.0026 40.09 90.0026 40.3854ZM91.3321 47.6972L91.3328 47.8399C91.3385 48.3449 91.3751 48.6481 91.4428 48.7497C91.5167 48.8605 91.849 48.9159 92.4399 48.9159C92.1445 49.5806 91.9229 50.0237 91.7752 50.2453C91.6275 50.4669 91.5536 50.6515 91.5536 50.7992C91.5536 50.9469 91.6275 51.1316 91.7752 51.3531C91.9229 51.5747 92.1445 52.0179 92.4399 52.6826C91.849 52.3871 91.4428 52.2764 91.2213 52.3502C90.9997 52.4241 90.8151 52.5718 90.6673 52.7934C90.5196 53.0149 90.335 53.255 90.1134 53.5135C89.8918 53.772 89.4487 53.9012 88.784 53.9012V51.4639C88.4886 51.1685 88.3039 51.0577 88.2301 51.1316C88.1562 51.2054 88.0823 51.3531 88.0085 51.5747C87.9346 51.7963 87.7869 52.0363 87.5653 52.2948C87.3438 52.5533 86.9376 52.6826 86.3467 52.6826C86.3467 52.0179 86.476 51.5747 86.7345 51.3531C86.993 51.1316 87.2699 50.9469 87.5653 50.7992C87.8608 50.6515 88.1377 50.4669 88.3962 50.2453C88.6547 50.0237 88.784 49.5806 88.784 48.9159V48.9178L88.7884 49.0488C88.7973 49.1818 88.8194 49.3147 88.8549 49.4476L88.8948 49.5806C89.0425 49.9499 89.4118 50.1345 90.0026 50.1345C90.2981 50.1345 90.4273 49.9499 90.3904 49.5806C90.3535 49.2113 90.2981 48.842 90.2242 48.4727C90.1503 48.1034 90.1503 47.808 90.2242 47.5864C90.2981 47.3649 90.6673 47.4018 91.3321 47.6972ZM72.7201 75.9475V73.621H73.9388C73.9388 73.9164 73.9942 74.2672 74.1049 74.6735C74.2157 75.0797 74.2711 75.4305 74.2711 75.7259C74.2711 76.0213 74.1788 76.206 73.9942 76.2798C73.8095 76.3537 73.3848 76.2429 72.7201 75.9475ZM50.6738 95.6673H54.3298L54.3263 95.7822C54.2941 96.3038 54.0368 96.6163 53.5543 96.7197C53.0373 96.8305 52.4833 96.8859 51.8925 96.8859C51.8925 97.4768 52.0217 97.883 52.2802 98.1045C52.5387 98.3261 52.4095 98.7693 51.8925 99.434C51.0062 99.434 50.4338 99.3601 50.1753 99.2124C49.9168 99.0647 49.8245 98.8247 49.8983 98.4923C49.9722 98.1599 50.1199 97.7537 50.3415 97.2737C50.5631 96.7936 50.6738 96.2581 50.6738 95.6673ZM82.58 41.604V40.3854C82.8754 40.09 83.1155 39.9607 83.3001 39.9977C83.4848 40.0346 83.7063 40.1454 83.9648 40.33C84.2233 40.5146 84.5188 40.6439 84.8511 40.7178C85.1835 40.7916 85.682 40.6808 86.3467 40.3854L86.3534 40.5627C86.3711 40.799 86.4243 41.0353 86.5129 41.2717C86.6237 41.5671 86.6791 41.8256 86.6791 42.0472C86.6791 42.2688 86.5683 42.4534 86.3467 42.6011C86.1251 42.7488 85.682 42.8227 85.0173 42.8227L85.0125 42.7263C84.987 42.4746 84.8593 42.2667 84.6295 42.1026C84.371 41.9179 84.0941 41.7887 83.7986 41.7148C83.4294 41.641 83.0232 41.604 82.58 41.604ZM98.6439 46.5894L98.7581 46.5913C99.2728 46.6097 99.5302 46.7568 99.5302 47.0325C99.5302 47.3279 99.2347 47.1802 98.6439 46.5894ZM98.6439 46.5894L98.4671 46.6417C97.5994 46.8884 96.9752 46.9079 96.5944 46.7002C96.1881 46.4786 95.8189 46.2201 95.4865 45.9247C95.1541 45.6292 94.7849 45.3892 94.3786 45.2046C93.9724 45.0199 93.3262 45.0753 92.4399 45.3707C92.1445 45.0753 92.0337 45.0753 92.1075 45.3707C92.1814 45.6662 92.2553 46.0355 92.3291 46.4786C92.403 46.9217 92.403 47.3095 92.3291 47.6418C92.2553 47.9742 91.9229 47.9927 91.3321 47.6972L91.3842 47.5895C91.6287 47.0658 91.6298 46.7694 91.3874 46.7002C91.1289 46.6263 90.8151 46.6263 90.4458 46.7002L89.3379 46.9217C88.9686 46.9956 88.784 46.8848 88.784 46.5894C88.784 45.6292 88.9132 45.1307 89.1717 45.0938C89.4302 45.0568 89.7257 45.1122 90.058 45.26C90.3904 45.4077 90.6858 45.4631 90.9443 45.4261C91.2028 45.3892 91.3321 44.9276 91.3321 44.0413L91.4207 43.9582C91.6866 43.7256 91.9524 43.6425 92.2183 43.709C92.5138 43.7828 92.8092 43.9121 93.1046 44.0967C93.4 44.2814 93.6955 44.4106 93.9909 44.4845C94.2863 44.5583 94.5818 44.4106 94.8772 44.0413C94.8772 43.155 94.6925 42.6934 94.3233 42.6565C93.954 42.6196 93.5847 42.6934 93.2154 42.8781C92.8461 43.0627 92.5507 43.1366 92.3291 43.0996C92.1075 43.0627 92.1445 42.5642 92.4399 41.604C92.1445 41.604 91.8491 41.6594 91.5536 41.7702C91.2582 41.881 90.9997 41.9364 90.7781 41.9364C90.5566 41.9364 90.3719 41.8256 90.2242 41.604C90.0765 41.3825 90.0026 40.9763 90.0026 40.3854L90.1473 40.39C90.3832 40.4054 90.5935 40.4593 90.7781 40.5516C90.9997 40.6624 91.2213 40.7547 91.4428 40.8285C91.6644 40.9024 91.9414 40.9209 92.2737 40.8839C92.6061 40.847 93.0677 40.6808 93.6585 40.3854C93.6585 40.6808 93.7878 40.8655 94.0463 40.9393C94.3048 41.0132 94.5818 41.0501 94.8772 41.0501C95.1726 41.0501 95.4496 41.0686 95.7081 41.1055C95.9666 41.1424 96.0958 41.3086 96.0958 41.604C95.8004 42.5642 95.7635 43.2474 95.985 43.6536C96.2066 44.0598 96.5205 44.3737 96.9267 44.5952C97.3329 44.8168 97.7207 45.0384 98.09 45.26C98.4592 45.4815 98.6439 45.9247 98.6439 46.5894Z" fill="#FF8A00"/>
</svg>
