<svg width="144" height="144" viewBox="0 0 144 144" fill="none" xmlns="http://www.w3.org/2000/svg">
<rect width="144" height="144" fill="#1E1D1D"/>
<path d="M103.923 110.471C104.219 109.584 104.44 108.495 104.588 107.202C104.736 105.91 104.809 104.562 104.809 103.159C104.809 101.755 104.736 100.408 104.588 99.1151C104.44 97.8226 104.219 96.6963 103.923 95.7361H62.1571C65.5545 91.4524 69.0073 87.2795 72.5155 83.2174C76.0237 79.1553 79.5319 75.1301 83.0401 71.1418C86.5483 67.1535 90.0565 63.1283 93.5647 59.0662C97.0729 55.0041 100.526 50.8312 103.923 46.5475C103.923 44.7749 104.071 42.7623 104.366 40.5097C104.662 38.257 104.514 36.2075 103.923 34.3611C99.2701 33.7702 94.3217 33.3825 89.0779 33.1978C83.8341 33.0132 78.4794 32.9578 73.014 33.0317C67.5486 33.1055 62.1201 33.2717 56.7286 33.5302C51.337 33.7887 46.167 34.0656 41.2186 34.3611V47.7661C44.2468 48.1354 47.4411 48.3385 50.8016 48.3754C54.1621 48.4123 57.5779 48.3754 61.0492 48.2646C64.5205 48.1538 68.0102 48.0431 71.5184 47.9323C75.0266 47.8215 78.4794 47.7661 81.8769 47.7661C75.0082 56.4812 67.9918 64.9194 60.8276 73.0805C53.6635 81.2417 46.721 89.643 40 98.2842V110.471H103.923ZM94.0632 36.6876H97.8299C97.8299 37.3523 97.3499 37.74 96.3897 37.8508C95.4296 37.9616 94.6541 38.017 94.0632 38.017V36.6876ZM74.3435 40.4543V38.017C73.7526 38.017 73.4018 38.2755 73.291 38.7925C73.1802 39.3095 73.1248 39.8634 73.1248 40.4543C72.8294 39.8634 72.4047 39.5126 71.8508 39.4018C71.2969 39.291 70.7245 39.1802 70.1336 39.0695C69.5428 38.9587 68.9519 38.774 68.361 38.5155C67.7702 38.257 67.327 37.6477 67.0316 36.6876C67.9918 37.3523 68.9334 37.7216 69.8566 37.7954C70.7799 37.8693 71.6846 37.8693 72.5709 37.7954C73.4572 37.7216 74.3619 37.6662 75.2851 37.6292C76.2083 37.5923 77.15 37.7216 78.1102 38.017C77.8147 38.6078 77.5193 39.0141 77.2239 39.2356C76.9284 39.4572 76.6146 39.6049 76.2822 39.6788L75.2851 39.9003C74.9528 39.9742 74.6389 40.1588 74.3435 40.4543ZM57.1717 41.6729L57.3038 41.6739C57.8151 41.6818 58.1219 41.7368 58.2242 41.8391C58.335 41.9499 58.3904 42.3376 58.3904 43.0023H57.1717V41.6729ZM59.886 37.7954C59.4798 37.8693 59.2028 37.8139 59.0551 37.6292C58.9074 37.4446 58.9443 37.2415 59.1659 37.0199C59.3874 36.7984 59.9783 36.6876 60.9384 36.6876C60.643 37.3523 60.2922 37.7216 59.886 37.7954ZM52.2972 41.6729L52.2905 41.4957C52.2728 41.2593 52.2196 41.023 52.131 40.7866C52.0202 40.4912 51.9648 40.2327 51.9648 40.0111C51.9648 39.7896 52.0571 39.6049 52.2418 39.4572C52.4264 39.3095 52.8142 39.2356 53.405 39.2356C53.405 38.5709 53.3496 38.1462 53.2388 37.9616C53.1281 37.777 52.9619 37.6846 52.7403 37.6846C52.5187 37.6846 52.2602 37.74 51.9648 37.8508C51.6694 37.9616 51.374 38.017 51.0785 38.017C50.7831 37.3523 50.7462 36.983 50.9677 36.9091C51.1893 36.8353 51.5217 36.8353 51.9648 36.9091C52.408 36.983 52.888 37.0569 53.405 37.1307C53.922 37.2046 54.3652 37.0569 54.7344 36.6876C54.7344 37.9431 54.4759 38.9402 53.959 39.6788C53.442 40.4173 52.888 41.0821 52.2972 41.6729ZM44.8746 38.017C44.8746 37.3523 45.1331 36.9645 45.6501 36.8537C46.167 36.743 46.721 36.6876 47.3118 36.6876C47.3118 37.3523 47.0533 37.74 46.5363 37.8508C46.0193 37.9616 45.4654 38.017 44.8746 38.017ZM100.267 39.2356C99.9718 39.5311 99.7318 39.6418 99.5471 39.568C99.3625 39.4941 99.1963 39.3833 99.0486 39.2356C98.9009 39.0879 98.7347 38.9771 98.55 38.9033C98.3654 38.8294 98.1254 38.9402 97.8299 39.2356C97.8299 38.9402 97.9592 38.6448 98.2177 38.3493C98.4762 38.0539 98.7532 37.8324 99.0486 37.6846C99.344 37.5369 99.621 37.4815 99.8795 37.5185C100.138 37.5554 100.267 37.7216 100.267 38.017V39.2356ZM51.0785 40.4543C50.4877 40.4543 50.1184 40.2696 49.9707 39.9003C49.8968 39.6788 49.8599 39.4572 49.8599 39.2356C50.4507 39.2356 50.8016 39.291 50.9124 39.4018C51.0231 39.5126 51.0785 39.8634 51.0785 40.4543ZM97.8299 41.6729V40.4543C98.4208 39.8634 98.827 39.7157 99.0486 40.0111C99.2701 40.3066 99.6764 40.4543 100.267 40.4543C100.267 41.0451 100.009 41.3959 99.4917 41.5067C98.9747 41.6175 98.4208 41.6729 97.8299 41.6729ZM70.6875 44.1102C70.1705 44.4795 69.7643 44.5164 69.4689 44.221C69.4689 43.6301 69.6905 43.1685 70.1336 42.8362C70.5767 42.5038 70.7983 41.7098 70.7983 40.4543C71.6846 40.4543 72.1831 40.6943 72.2939 41.1744C72.4047 41.6544 72.2939 42.1714 71.9616 42.7254C71.6292 43.2793 71.2045 43.7409 70.6875 44.1102ZM73.1402 42.7561C73.1915 42.3663 73.371 42.0791 73.6787 41.8945L74.3435 41.6729C74.3435 42.0422 74.2881 42.2453 74.1773 42.2822C74.0665 42.3192 73.9188 42.3376 73.7341 42.3376C73.5495 42.3376 73.4018 42.3745 73.291 42.4484C73.2218 42.4946 73.1741 42.584 73.1482 42.7167L73.1373 42.7827L73.1402 42.7561ZM95.2819 45.3288H94.0632V44.221C94.6541 44.221 95.0049 44.2579 95.1157 44.3318C95.2265 44.4056 95.2819 44.738 95.2819 45.3288ZM99.1594 46.4921C98.9378 46.6767 98.6239 46.7321 98.2177 46.6582C97.8115 46.5844 97.4237 46.4182 97.0544 46.1597C96.6852 45.9012 96.5005 45.6243 96.5005 45.3288H99.0486C99.344 45.9197 99.3809 46.3074 99.1594 46.4921ZM96.5005 49.0955H95.2819V47.7661H96.5005V49.0955ZM94.0632 51.5328V50.3142H95.2819C95.2819 50.5357 95.2449 50.7573 95.1711 50.9789C95.0234 51.3482 94.6541 51.5328 94.0632 51.5328ZM80.5474 58.8446C80.8429 58.2538 81.1014 57.6075 81.3229 56.9059C81.5445 56.2042 81.8215 55.5949 82.1538 55.0779C82.4862 54.5609 82.8924 54.1916 83.3725 53.9701C83.8525 53.7485 84.5357 53.7854 85.422 54.0809C85.422 53.4162 85.2743 52.973 84.9788 52.7514C84.6834 52.5299 84.8311 52.1237 85.422 51.5328C86.0867 51.5328 86.7329 51.7913 87.3607 52.3083C87.9885 52.8253 88.5978 53.4162 89.1887 54.0809H86.7514C86.7514 54.3763 87.0099 54.6163 87.5269 54.801C88.0439 54.9856 88.5609 55.1887 89.0779 55.4103C89.5949 55.6319 90.0196 55.9088 90.3519 56.2412C90.6843 56.5735 90.7027 57.0351 90.4073 57.626C89.521 56.7397 88.6163 56.2412 87.6931 56.1304C86.7699 56.0196 85.8836 56.1119 85.0342 56.4074C84.1849 56.7028 83.3725 57.109 82.597 57.626C81.8215 58.143 81.1383 58.5492 80.5474 58.8446ZM92.8446 52.7514H91.7367V51.5328H92.8446V52.7514ZM90.4073 55.1887C90.4073 54.6717 90.6289 54.3394 91.072 54.1916C91.2936 54.1178 91.5152 54.0809 91.7367 54.0809C91.7367 54.5979 91.5152 54.9302 91.072 55.0779C90.8505 55.1518 90.6289 55.1887 90.4073 55.1887ZM86.696 59.5093C86.2159 59.5093 85.8097 59.3616 85.4774 59.0662C85.145 58.7708 85.1266 58.2907 85.422 57.626C85.8651 57.4044 86.2713 57.2567 86.6406 57.1829C87.0099 57.109 87.3238 57.0905 87.5823 57.1275C87.8408 57.1644 87.97 57.3306 87.97 57.626C88.2655 58.2907 88.247 58.7708 87.9147 59.0662C87.5823 59.3616 87.1761 59.5093 86.696 59.5093ZM74.2743 71.1035C73.9937 70.524 73.666 70.149 73.291 69.9786C72.8848 69.7939 72.534 69.7939 72.2385 69.9786C71.9431 70.1632 71.7585 70.4771 71.6846 70.9202C71.6107 71.3634 71.7215 71.8804 72.017 72.4712C71.0568 72.4712 70.5214 72.2681 70.4106 71.8619C70.2998 71.4557 70.3183 70.9756 70.466 70.4217C70.6137 69.8678 70.7799 69.3138 70.9645 68.7599C71.0213 68.5895 71.0554 68.4313 71.0668 68.2853L71.068 68.2442L71.0787 68.2551C71.2034 68.3754 71.3696 68.462 71.5773 68.5148L71.6846 68.5383C72.2755 68.6491 73.1617 68.7045 74.3435 68.7045C74.6389 67.8182 74.8974 66.8581 75.1189 65.8241C75.3405 64.7901 75.6175 63.8115 75.9498 62.8883C76.2822 61.9651 76.7069 61.1527 77.2239 60.451C77.7409 59.7494 78.4425 59.2139 79.3288 58.8446C79.0334 59.5093 79.0518 59.9525 79.3842 60.1741C79.7165 60.3956 80.1597 60.5987 80.7136 60.7834C81.2675 60.968 81.7845 61.1711 82.2646 61.3927C82.7447 61.6143 82.9847 62.0205 82.9847 62.6113C82.3939 62.6113 81.9138 62.5559 81.5445 62.4452C81.1752 62.3344 80.8429 62.1867 80.5474 62.002C80.252 61.8174 79.9196 61.6697 79.5504 61.5589C79.1811 61.4481 78.701 61.3927 78.1102 61.3927C77.8147 61.6881 77.5747 62.1128 77.39 62.6667C77.2054 63.2207 77.0392 63.8115 76.8915 64.4393C76.7438 65.0671 76.5776 65.6579 76.393 66.2119C76.2083 66.7658 75.9683 67.1905 75.6729 67.4859C75.6729 67.7813 75.8021 67.8921 76.0606 67.8182C76.3191 67.7444 76.5961 67.6336 76.8915 67.4859C77.1869 67.3382 77.4639 67.2274 77.7224 67.1535C77.9809 67.0797 78.1102 67.1905 78.1102 67.4859C78.1102 68.1506 78.0363 68.5199 77.8886 68.5937C77.7409 68.6676 77.5562 68.6676 77.3347 68.5937C77.1131 68.5199 76.8546 68.446 76.5592 68.3722C76.2637 68.2983 75.9683 68.4091 75.6729 68.7045C75.6729 69.3692 75.9314 69.757 76.4484 69.8678C76.9654 69.9786 77.5193 70.034 78.1102 70.034C77.5193 70.6248 77.1685 71.2157 77.0577 71.8065C76.9469 72.3974 76.8915 72.9882 76.8915 73.5791C76.2268 73.5791 75.8391 73.3944 75.7283 73.0252C75.6175 72.6559 75.5621 72.2866 75.5621 71.9173C75.5621 71.548 75.5252 71.2711 75.4513 71.0864C75.3774 70.9018 75.0082 70.9572 74.3435 71.2526L74.2743 71.1035ZM84.2033 61.3927C84.2033 60.8018 84.0002 60.3956 83.594 60.1741C83.1878 59.9525 82.9847 59.5093 82.9847 58.8446C83.5756 58.8446 83.9818 58.9739 84.2033 59.2324C84.4249 59.4909 84.628 59.7309 84.8127 59.9525C84.9973 60.1741 85.2004 60.3402 85.422 60.451C85.6436 60.5618 86.0867 60.4695 86.7514 60.1741C86.7514 60.7649 86.4744 61.1157 85.9205 61.2265C85.3666 61.3373 84.7942 61.3927 84.2033 61.3927ZM84.3695 63.276C84.2587 63.4238 84.2033 63.2022 84.2033 62.6113C84.4988 62.0205 84.6649 61.7989 84.7019 61.9466C84.7388 62.0943 84.7203 62.3159 84.6465 62.6113C84.5726 62.9068 84.4803 63.1283 84.3695 63.276ZM80.5474 67.4859C80.5474 66.895 80.7136 66.2857 81.046 65.6579C81.3783 65.0301 81.2121 64.3839 80.5474 63.7192H82.9847C82.3939 64.3839 82.0061 65.0301 81.8215 65.6579C81.6368 66.2857 81.2121 66.895 80.5474 67.4859ZM72.6817 67.6521C72.534 67.9106 72.3124 67.8552 72.017 67.4859C72.017 66.895 72.0539 66.4888 72.1277 66.2672C72.2016 66.0457 72.534 65.6395 73.1248 65.0486C73.1248 65.7133 73.0879 66.2673 73.014 66.7104C72.9402 67.0797 72.8294 67.3936 72.6817 67.6521ZM68.2503 71.2526C68.2503 70.6617 68.4349 70.2925 68.8042 70.1447C69.0258 70.0709 69.2473 70.034 69.4689 70.034C69.4689 70.6248 69.4135 70.9756 69.3027 71.0864C69.1919 71.1972 68.8411 71.2526 68.2503 71.2526ZM69.4675 74.6541C69.452 73.8636 69.3048 73.4683 69.0258 73.4683C68.7303 73.4683 68.361 73.6345 67.9179 73.9668C67.4748 74.2992 66.9578 74.6131 66.3669 74.9085C65.7761 75.2039 65.1852 75.167 64.5943 74.7977C65.1852 74.2069 65.7391 73.8191 66.2561 73.6345C66.7731 73.4498 67.0316 73.0621 67.0316 72.4712C67.327 72.1758 67.5671 72.0096 67.7517 71.9727C67.9364 71.9358 68.1579 71.9542 68.4164 72.0281C68.6749 72.1019 68.9704 72.1943 69.3027 72.3051C69.6351 72.4158 70.1336 72.4712 70.7983 72.4712C70.7983 73.0621 70.7429 73.5975 70.6321 74.0776C70.5214 74.5577 70.1336 74.7977 69.4689 74.7977L69.4675 74.6541ZM70.7983 77.3458C70.429 76.6811 70.2998 76.2564 70.4106 76.0718C70.5214 75.8871 70.7245 75.7948 71.0199 75.7948C71.3153 75.7948 71.6661 75.8502 72.0724 75.961C72.4786 76.0718 72.8294 76.1271 73.1248 76.1271C73.1248 76.718 72.8848 77.0688 72.4047 77.1796C71.9246 77.2904 71.3892 77.3458 70.7983 77.3458ZM64.5943 77.3458L64.4614 77.3414C64.2841 77.3295 64.1069 77.2941 63.9296 77.235C63.4865 77.0873 63.2649 76.718 63.2649 76.1271H64.5943V77.3458ZM62.1571 79.7831L62.1578 79.6403C62.1635 79.1354 62.2001 78.8322 62.2679 78.7306C62.3417 78.6198 62.6741 78.5644 63.2649 78.5644V79.7831H62.1571ZM59.7198 83.439H58.3904V82.3311H59.7198V83.439ZM65.813 83.439C65.813 82.922 65.9976 82.5896 66.3669 82.4419C66.5885 82.3681 66.81 82.3311 67.0316 82.3311C67.0316 82.8481 66.81 83.1805 66.3669 83.3282C66.1453 83.402 65.9607 83.439 65.813 83.439ZM60.9384 84.6576C60.9384 84.0668 61.1231 83.6975 61.4924 83.5498C61.7139 83.4759 61.9355 83.439 62.1571 83.439C62.1571 84.0298 61.9355 84.3991 61.4924 84.5468C61.2708 84.6207 61.0861 84.6576 60.9384 84.6576ZM65.2591 85.3223C64.8898 85.47 64.502 85.507 64.0958 85.4331C63.6896 85.3593 63.3757 85.1561 63.1541 84.8238C62.9326 84.4914 62.9695 84.0298 63.2649 83.439C63.9296 83.439 64.2989 83.5682 64.3728 83.8267C64.4466 84.0852 64.4836 84.3253 64.4836 84.5468C64.4836 84.7684 64.539 84.9161 64.6497 84.99C64.7605 85.0638 65.1483 84.953 65.813 84.6576C65.813 84.953 65.6283 85.1746 65.2591 85.3223ZM58.3904 87.2057L58.3873 87.0666C58.3603 86.4788 58.1582 86.082 57.781 85.8763C57.3748 85.6547 57.1717 85.2485 57.1717 84.6576C58.4273 84.6576 59.369 84.7684 59.9968 84.99C60.6245 85.2115 60.9384 85.9501 60.9384 87.2057H58.3904ZM62.1689 86.9914L62.1725 86.9595C62.2237 86.5697 62.4033 86.2825 62.711 86.0978C62.8587 86.024 63.0433 85.9501 63.2649 85.8763C63.2649 86.2455 63.2095 86.4486 63.0987 86.4856C62.988 86.5225 62.8587 86.541 62.711 86.541C62.5633 86.541 62.434 86.5779 62.3232 86.6518C62.254 86.6979 62.2064 86.7873 62.1804 86.9201L62.1689 86.9914ZM54.7344 87.2057C54.7344 86.9102 54.7898 86.7256 54.9006 86.6518C55.0114 86.5779 55.1037 86.5964 55.1776 86.7071C55.2514 86.8179 55.2699 86.9287 55.233 87.0395C55.1961 87.1503 55.0299 87.2057 54.7344 87.2057ZM62.1571 89.643H60.9384V88.4243H62.1571V89.643ZM59.7198 89.643H58.3904V88.4243L58.5286 88.4252C59.0644 88.4319 59.3968 88.4794 59.5256 88.5676L59.5536 88.5905C59.6644 88.7013 59.7198 89.0521 59.7198 89.643ZM57.1717 90.7508H55.9531V89.643H57.1717V90.7508ZM60.3845 91.6925C60.2368 91.7294 60.0152 91.4155 59.7198 90.7508C60.0152 90.4554 60.2368 90.4184 60.3845 90.64C60.5322 90.8616 60.6061 91.0832 60.6061 91.3047C60.6061 91.5263 60.5322 91.6556 60.3845 91.6925ZM53.405 92.191H52.2972V90.7508C52.888 90.7508 53.2204 90.8062 53.2942 90.917C53.3681 91.0278 53.405 91.4524 53.405 92.191ZM57.1717 94.5175V95.7361H55.9531V94.5175H57.1717ZM48.4197 95.7361H47.3118C47.3118 95.1453 47.5888 94.7945 48.1427 94.6837C48.6966 94.5729 49.269 94.5175 49.8599 94.5175C50.1553 94.8129 50.2476 95.053 50.1369 95.2376C50.0261 95.4223 49.823 95.5515 49.5275 95.6254C49.2321 95.6992 48.8628 95.7361 48.4197 95.7361ZM48.0319 98.395C47.8473 98.6166 47.6073 98.5796 47.3118 98.2842V97.0656C47.6073 96.7701 47.8473 96.7148 48.0319 96.8994C48.2166 97.084 48.3089 97.3241 48.3089 97.6195C48.3089 97.9149 48.2166 98.1734 48.0319 98.395ZM53.405 98.2842C53.405 97.6934 53.6266 97.3241 54.0697 97.1764C54.2913 97.1025 54.5129 97.0656 54.7344 97.0656C54.7344 97.6564 54.6791 98.0072 54.5683 98.118C54.4575 98.2288 54.0697 98.2842 53.405 98.2842ZM51.0231 99.1151C50.8385 99.152 50.4507 98.8751 49.8599 98.2842C50.1553 97.9888 50.4323 97.9334 50.6908 98.118C50.9493 98.3027 51.1155 98.5058 51.1893 98.7273C51.2632 98.9489 51.2078 99.0782 51.0231 99.1151ZM46.0932 99.5028H43.7667C43.7667 98.912 44.0067 98.5612 44.4868 98.4504C44.9669 98.3396 45.5023 98.2842 46.0932 98.2842V99.5028ZM52.9065 100.168C52.7957 100.315 52.5926 100.094 52.2972 99.5028C52.5926 98.912 52.7957 98.6904 52.9065 98.8381C53.0173 98.9858 53.0727 99.2074 53.0727 99.5028C53.0727 99.7983 53.0173 100.02 52.9065 100.168ZM62.1571 101.829V99.5028C62.4525 99.2074 62.6556 99.152 62.7664 99.3367C62.8772 99.5213 62.9326 99.7983 62.9326 100.168C62.9326 100.537 62.8772 100.906 62.7664 101.275C62.6556 101.645 62.4525 101.829 62.1571 101.829ZM99.0486 100.611H95.2819C95.5773 100.315 96.002 100.038 96.5559 99.7798C97.1098 99.5213 97.6268 99.3551 98.1069 99.2813C98.587 99.2074 98.9378 99.2628 99.1594 99.4475C99.3809 99.6321 99.344 100.02 99.0486 100.611ZM76.8915 100.611H75.6729V99.5028H76.8915V100.611ZM59.7198 100.611C59.7198 100.094 59.9044 99.7613 60.2737 99.6136C60.4953 99.5398 60.7169 99.5028 60.9384 99.5028C60.9384 100.02 60.7169 100.352 60.2737 100.5C60.0521 100.574 59.8675 100.611 59.7198 100.611ZM80.5474 103.159L80.5458 103.341C80.5358 103.903 80.481 104.599 80.3813 105.43C80.2705 106.353 79.9196 106.815 79.3288 106.815C79.6242 106.224 79.735 105.818 79.6611 105.596C79.5873 105.374 79.4396 105.171 79.218 104.987C78.9964 104.802 78.7564 104.599 78.4979 104.377C78.2394 104.156 78.1102 103.75 78.1102 103.159H80.5474ZM81.8769 100.611C81.8769 100.02 81.9138 99.6875 81.9876 99.6136C82.0615 99.5398 82.3939 99.5028 82.9847 99.5028C82.9847 100.094 82.9478 100.426 82.8739 100.5C82.8001 100.574 82.4677 100.611 81.8769 100.611ZM90.4073 100.611H89.1887V99.5028H90.4073V100.611ZM57.1717 104.377C56.2116 104.377 55.6577 104.137 55.5099 103.657C55.3622 103.177 55.3438 102.66 55.4546 102.106C55.5653 101.552 55.6207 101.091 55.6207 100.721C55.6207 100.352 55.3253 100.315 54.7344 100.611C55.0299 100.02 55.3253 99.6875 55.6207 99.6136C55.9162 99.5398 56.2301 99.5767 56.5624 99.7244C56.8948 99.8721 57.2087 100.057 57.5041 100.278C57.7995 100.5 58.0949 100.611 58.3904 100.611C58.0949 100.611 57.9103 100.758 57.8364 101.054C57.7626 101.349 57.7257 101.682 57.7257 102.051C57.7257 102.42 57.7072 102.826 57.6703 103.27C57.6333 103.713 57.4672 104.082 57.1717 104.377ZM69.4689 100.611H67.0316C67.0316 100.315 67.2163 100.112 67.5855 100.001C67.9548 99.8906 68.3426 99.8352 68.7488 99.8352C69.155 99.8352 69.4504 99.8906 69.6351 100.001C69.8197 100.112 69.7643 100.315 69.4689 100.611ZM79.3288 101.829H78.1102V100.611C78.6272 100.094 78.9964 99.946 79.218 100.168C79.2919 100.241 79.3288 100.389 79.3288 100.611V101.829ZM48.6413 101.829V100.611C49.2321 100.315 49.6753 100.223 49.9707 100.334C50.2661 100.445 50.4138 100.611 50.4138 100.832C50.4138 101.054 50.2661 101.275 49.9707 101.497C49.6753 101.719 49.2321 101.829 48.6413 101.829ZM94.0632 101.829C94.0632 101.238 94.2479 100.869 94.6172 100.721C94.8387 100.648 95.0603 100.611 95.2819 100.611C95.2819 101.202 95.2265 101.552 95.1157 101.663C95.0049 101.774 94.6541 101.829 94.0632 101.829ZM65.813 101.829H64.5943V100.611C65.1852 100.611 65.536 100.666 65.6468 100.777C65.7576 100.888 65.813 101.238 65.813 101.829ZM95.2819 104.377H91.7367C91.7367 103.787 91.6814 103.436 91.5706 103.325C91.4598 103.214 91.072 103.159 90.4073 103.159C91.072 102.494 91.4967 101.903 91.6814 101.386C91.866 100.869 92.2537 100.611 92.8446 100.611V103.159C93.4355 103.159 93.9894 103.214 94.5064 103.325C95.0234 103.436 95.2819 103.787 95.2819 104.377ZM43.778 101.59C43.8232 101.137 44.0041 100.848 44.3206 100.721C44.4683 100.648 44.653 100.611 44.8746 100.611C44.8746 101.202 44.6899 101.405 44.3206 101.22C44.0165 101.068 43.8376 101.179 43.784 101.553L43.7753 101.626L43.778 101.59ZM51.0795 101.697C51.0874 101.186 51.1424 100.879 51.2447 100.777C51.3555 100.666 51.7063 100.611 52.2972 100.611C52.2972 100.906 52.2418 101.091 52.131 101.165C52.0202 101.238 51.8725 101.275 51.6879 101.275C51.5032 101.275 51.3555 101.294 51.2447 101.331C51.1339 101.368 51.0785 101.534 51.0785 101.829V101.814L51.0795 101.697ZM99.9349 101.552C99.7871 101.737 99.6025 101.792 99.3809 101.719C99.1594 101.645 99.0486 101.275 99.0486 100.611L99.1803 100.613C99.6466 100.627 99.9279 100.721 100.024 100.894L100.046 100.943C100.12 101.165 100.083 101.368 99.9349 101.552ZM67.6963 103.27C67.5486 103.491 67.327 103.454 67.0316 103.159V101.829C67.327 101.534 67.5486 101.497 67.6963 101.719C67.844 101.94 67.9179 102.199 67.9179 102.494C67.9179 102.789 67.844 103.048 67.6963 103.27ZM54.7344 103.159H53.405V101.829H54.7344V103.159ZM97.8299 103.159H96.5005V101.829H97.8299V103.159ZM52.2972 104.377L52.1226 104.433C51.3207 104.677 50.6957 104.695 50.2476 104.488C49.7676 104.267 49.5275 104.008 49.5275 103.713C49.5275 103.417 49.7676 103.177 50.2476 102.993C50.7277 102.808 51.4109 102.863 52.2972 103.159V104.377ZM59.7198 104.377L59.5816 104.377C59.0011 104.369 58.6594 104.314 58.5565 104.211C58.4458 104.1 58.3904 103.75 58.3904 103.159H59.7198V104.377ZM65.4806 104.71C65.1852 104.71 64.8159 104.654 64.3728 104.544C63.9296 104.433 63.5603 104.377 63.2649 104.377V103.159H65.813C66.1084 103.75 66.2007 104.156 66.0899 104.377C65.9792 104.599 65.7761 104.71 65.4806 104.71ZM73.1248 104.377H72.017V103.159H73.1248V104.377ZM86.7514 104.377H85.422V103.159C86.0867 103.159 86.4744 103.214 86.5852 103.325C86.696 103.436 86.7514 103.787 86.7514 104.377ZM99.0486 104.377L98.9847 104.311C98.746 104.048 98.712 103.849 98.8824 103.713C99.067 103.565 99.3071 103.491 99.6025 103.491C99.8979 103.491 100.156 103.565 100.378 103.713C100.6 103.86 100.563 104.082 100.267 104.377H99.0486ZM48.6413 105.596L48.5016 105.656C47.9089 105.898 47.4754 105.934 47.201 105.762C46.9056 105.578 46.7579 105.319 46.7579 104.987C46.7579 104.654 46.9056 104.396 47.201 104.211C47.4965 104.027 47.9765 104.082 48.6413 104.377V105.596ZM68.4462 106.321L68.4164 106.316C68.3057 106.279 68.2503 105.633 68.2503 104.377C68.5457 104.082 68.7119 104.156 68.7488 104.599C68.7857 105.042 68.7673 105.448 68.6934 105.818C68.6195 106.187 68.5272 106.353 68.4164 106.316L68.4462 106.321ZM78.1102 106.815C76.8546 106.815 75.9129 106.556 75.2851 106.039C74.6573 105.522 74.3435 104.968 74.3435 104.377C75.599 104.377 76.5407 104.636 77.1685 105.153C77.7963 105.67 78.1102 106.224 78.1102 106.815ZM90.4073 105.596H89.1887V104.377H90.4073V105.596ZM84.8681 106.538C84.7203 106.575 84.4988 106.261 84.2033 105.596C84.4988 105.301 84.7203 105.245 84.8681 105.43C85.0158 105.615 85.0896 105.836 85.0896 106.095C85.0896 106.353 85.0158 106.501 84.8681 106.538ZM57.5041 107.147C57.0609 107.147 56.5624 107.092 56.0085 106.981C55.4546 106.87 55.0299 106.815 54.7344 106.815V105.596H58.3904C58.6858 106.261 58.7227 106.685 58.5011 106.87C58.2796 107.055 57.9472 107.147 57.5041 107.147ZM72.017 106.815H70.7983V105.596C71.3892 105.596 71.74 105.651 71.8508 105.762C71.9616 105.873 72.017 106.224 72.017 106.815ZM91.7367 106.815V105.596H94.0632C94.0632 106.187 93.8232 106.538 93.3431 106.649C92.8631 106.759 92.3276 106.815 91.7367 106.815ZM85.422 40.4543V41.6729C85.7174 42.0422 86.0313 42.1899 86.3637 42.116C86.696 42.0422 86.973 41.9129 87.1945 41.7283C87.4161 41.5437 87.6008 41.4144 87.7485 41.3406C87.8962 41.2667 87.97 41.3775 87.97 41.6729C87.97 42.3376 87.7854 42.6515 87.4161 42.6146C87.0468 42.5777 86.6591 42.5223 86.2529 42.4484C85.8467 42.3745 85.5328 42.4115 85.3112 42.5592C85.0896 42.7069 85.1266 43.2608 85.422 44.221H81.8769C82.4677 43.6301 83.0586 42.8546 83.6494 41.8945C84.2403 40.9343 84.8311 40.4543 85.422 40.4543ZM76.8915 43.0023C76.8915 43.2239 76.8546 43.4455 76.7807 43.667C76.633 44.0363 76.2637 44.221 75.6729 44.221V43.0023H76.8915ZM91.7367 41.6729L91.505 41.6699C90.3647 41.6396 89.5003 41.3821 88.9117 40.8974C88.2839 40.3804 87.97 39.8265 87.97 39.2356C88.2655 39.5311 88.6348 39.7157 89.0779 39.7896C89.521 39.8634 89.9273 39.9373 90.2965 40.0111C90.6658 40.085 90.9982 40.2327 91.2936 40.4543C91.589 40.6758 91.7367 41.0821 91.7367 41.6729ZM73.1248 73.5791L73.124 73.7218C73.1184 74.2267 73.0817 74.53 73.014 74.6315C72.9402 74.7423 72.6078 74.7977 72.017 74.7977V73.5791H73.1248ZM69.4689 74.7977C69.7643 75.167 69.8197 75.4255 69.6351 75.5732C69.4504 75.7209 69.2104 75.7948 68.915 75.7948C68.6195 75.7948 68.361 75.7209 68.1395 75.5732C67.9179 75.4255 67.9548 75.167 68.2503 74.7977H69.4689ZM51.0785 93.2989H48.6413C49.2321 92.708 49.6383 92.3757 49.8599 92.3018C50.0815 92.2279 50.4877 92.191 51.0785 92.191V93.2989ZM57.1717 41.6729H55.9531V44.221C55.3622 44.221 54.7898 44.3687 54.2359 44.6641C53.682 44.9595 53.405 44.8118 53.405 44.221C53.405 43.5563 53.5343 43.1131 53.7928 42.8915C54.0513 42.67 54.2913 42.4853 54.5129 42.3376C54.7344 42.1899 54.9006 42.0053 55.0114 41.7837C55.1222 41.5621 55.0299 41.119 54.7344 40.4543C55.3253 40.4543 55.6761 40.3804 55.7869 40.2327C55.8977 40.085 55.9162 39.9003 55.8423 39.6788C55.7684 39.4572 55.6946 39.1987 55.6207 38.9033C55.5469 38.6078 55.6577 38.3124 55.9531 38.017C57.2087 38.6078 58.4088 39.0141 59.5536 39.2356C60.6984 39.4572 61.5662 39.8634 62.1571 40.4543C62.7479 40.4543 63.1357 40.3435 63.3203 40.1219C63.505 39.9003 63.5973 39.6049 63.5973 39.2356C63.5973 38.9402 63.4865 38.534 63.2649 38.017C63.9296 38.017 64.3728 37.7954 64.5943 37.3523C64.8159 36.9091 65.2221 36.6876 65.813 36.6876V39.2356C66.4038 38.9402 66.81 38.8294 67.0316 38.9033C67.2532 38.9771 67.4563 39.1248 67.6409 39.3464C67.8256 39.568 68.0287 39.808 68.2503 40.0665C68.4718 40.325 68.878 40.4543 69.4689 40.4543C69.4689 41.119 69.2843 41.5621 68.915 41.7837C68.5457 42.0053 68.121 42.1899 67.6409 42.3376C67.1609 42.4853 66.7362 42.67 66.3669 42.8915C65.9976 43.1131 65.813 43.5563 65.813 44.221C65.1483 44.221 64.7051 44.1102 64.4836 43.8886C64.262 43.667 64.0773 43.4639 63.9296 43.2793C63.7819 43.0947 63.5973 43.0393 63.3757 43.1131C63.1541 43.187 62.7479 43.5563 62.1571 44.221C61.8616 43.9255 61.7509 43.6855 61.8247 43.5009C61.8986 43.3162 62.0463 43.15 62.2679 43.0023C62.4894 42.8546 62.711 42.6884 62.9326 42.5038C63.1541 42.3192 63.2649 42.0422 63.2649 41.6729C62.6741 41.0821 62.2125 40.8789 61.8801 41.0636C61.5477 41.2482 61.2708 41.5806 61.0492 42.0607C60.8276 42.5407 60.6245 43.0208 60.4399 43.5009C60.2553 43.9809 60.0152 44.221 59.7198 44.221C59.7198 42.9654 59.6644 42.0237 59.5536 41.3959C59.4428 40.7682 59.0551 40.4543 58.3904 40.4543C57.7995 40.4543 57.4487 40.5097 57.3379 40.6204C57.2271 40.7312 57.1717 41.0821 57.1717 41.6729ZM52.2972 41.6729L52.0961 41.8917C51.549 42.468 50.9144 42.9859 50.1923 43.4455C49.3798 43.9625 48.0135 44.221 46.0932 44.221C46.3886 43.5563 46.4994 42.9839 46.4255 42.5038C46.3517 42.0237 46.204 41.5991 45.9824 41.2298C45.7608 40.8605 45.5208 40.5097 45.2623 40.1773C45.0038 39.845 44.8746 39.5311 44.8746 39.2356C46.1301 39.8265 47.3672 40.3804 48.5859 40.8974C49.8045 41.4144 51.0416 41.6729 52.2972 41.6729ZM64.5943 77.3458L64.7176 77.343C65.2368 77.3185 65.565 77.1348 65.7022 76.7919C65.7761 76.5703 65.813 76.3487 65.813 76.1271C66.1084 76.1271 66.3484 76.2564 66.5331 76.5149C66.7177 76.7734 66.9208 77.0134 67.1424 77.235C67.364 77.4566 67.6594 77.6043 68.0287 77.6781C68.398 77.752 68.878 77.6412 69.4689 77.3458C69.4689 77.9366 69.4135 78.4167 69.3027 78.786C69.1919 79.1553 69.0442 79.4507 68.8596 79.6723C68.6749 79.8938 68.5272 80.1154 68.4164 80.337C68.3057 80.5586 68.2503 80.8171 68.2503 81.1125C67.6594 80.8171 67.1793 80.7063 66.8101 80.7801C66.4408 80.854 66.1084 81.0017 65.813 81.2233C65.5176 81.4448 65.1852 81.6849 64.8159 81.9434C64.4466 82.2019 63.9296 82.3311 63.2649 82.3311C63.9296 81.7403 64.3174 81.0756 64.4282 80.337C64.5389 79.5984 64.5943 78.6014 64.5943 77.3458ZM62.1571 79.7831V82.3311C61.5662 82.3311 61.0123 82.0726 60.4953 81.5556C59.9783 81.0386 59.7198 80.4478 59.7198 79.7831H62.1571ZM58.3904 87.2057V88.4243H55.9531C55.9531 87.1687 56.2116 86.4856 56.7286 86.3748C57.2456 86.264 57.7995 86.541 58.3904 87.2057ZM57.1717 94.5175L57.2319 94.394C57.4793 93.8723 57.5516 93.5257 57.4487 93.3543C57.3379 93.1696 57.1348 93.0773 56.8394 93.0773C56.5439 93.0773 56.1931 93.1142 55.7869 93.1881C55.3807 93.2619 55.0299 93.2989 54.7344 93.2989L54.6689 93.177C54.3595 92.582 54.3259 92.1979 54.5683 92.0248C54.8268 91.8402 55.1776 91.7663 55.6207 91.8033C56.0639 91.8402 56.5624 91.9141 57.1163 92.0248C57.6703 92.1356 58.0949 92.191 58.3904 92.191V94.5175H57.1717ZM46.0932 99.5028L46.1601 99.4389C46.4223 99.2003 46.6216 99.1662 46.7579 99.3367C46.9056 99.5213 46.9795 99.7613 46.9795 100.057C46.9795 100.352 46.9056 100.592 46.7579 100.777C46.6102 100.962 46.3886 100.906 46.0932 100.611V99.5028ZM80.5474 103.159V101.829C80.5474 101.238 80.6028 100.888 80.7136 100.777C80.8244 100.666 81.2121 100.611 81.8769 100.611L81.8807 100.696C81.9014 100.915 82.0048 101.062 82.1909 101.139L82.2646 101.165C82.5231 101.238 82.7816 101.275 83.0401 101.275C83.2986 101.275 83.5571 101.294 83.8156 101.331C84.0741 101.368 84.2033 101.534 84.2033 101.829V101.825V99.5028C84.8169 99.5028 85.2417 99.5972 85.4777 99.786L85.5328 99.8352C85.7543 100.057 85.939 100.278 86.0867 100.5C86.2344 100.721 86.419 100.869 86.6406 100.943C86.8622 101.017 87.3053 100.906 87.97 100.611V101.829C87.6746 101.829 87.4346 101.774 87.2499 101.663C87.0653 101.552 86.8437 101.46 86.5852 101.386C86.3267 101.312 86.0313 101.294 85.6989 101.331C85.3666 101.368 84.8681 101.534 84.2033 101.829C84.2033 103.085 84.0002 104.082 83.594 104.821C83.1878 105.559 82.9847 106.224 82.9847 106.815C82.4677 106.815 82.1354 106.63 81.9876 106.261C81.9138 106.039 81.8769 105.818 81.8769 105.596C81.8769 105.005 81.9138 104.599 81.9876 104.377C82.0615 104.156 82.3939 103.75 82.9847 103.159H80.5474ZM69.4689 100.611H72.017C72.017 100.906 71.9616 101.091 71.8508 101.165C71.74 101.238 71.5923 101.275 71.4076 101.275C71.223 101.275 71.0753 101.294 70.9645 101.331C70.8537 101.368 70.7983 101.534 70.7983 101.829C70.1336 101.829 69.7459 101.774 69.6351 101.663C69.5243 101.552 69.4689 101.202 69.4689 100.611ZM44.8746 103.159L44.9385 103.226C45.1771 103.488 45.2112 103.687 45.0407 103.823C44.8561 103.971 44.6161 104.045 44.3206 104.045C44.0252 104.045 43.7667 103.971 43.5451 103.823C43.3236 103.676 43.3974 103.454 43.7667 103.159H44.8746ZM48.6413 101.829L48.6386 101.979C48.6177 102.561 48.4708 102.954 48.1981 103.159C47.9027 103.38 47.5703 103.491 47.201 103.491C46.8318 103.491 46.4255 103.436 45.9824 103.325C45.5393 103.214 45.17 103.159 44.8746 103.159L44.8768 103.009C44.8952 102.427 45.0237 102.034 45.2623 101.829C45.5208 101.608 45.8532 101.497 46.2594 101.497C46.6656 101.497 47.0718 101.552 47.478 101.663C47.8842 101.774 48.272 101.829 48.6413 101.829ZM95.2819 104.377L95.5306 104.381C96.0189 104.394 96.453 104.449 96.8329 104.544C97.276 104.654 97.1652 105.005 96.5005 105.596H95.2819V104.377ZM52.2972 104.377L52.4289 104.378C52.9376 104.386 53.2261 104.441 53.2942 104.544C53.3681 104.654 53.405 105.005 53.405 105.596H52.2972V104.377ZM62.1571 105.596H64.5943C64.8898 106.261 64.9821 106.685 64.8713 106.87C64.7605 107.055 64.5574 107.147 64.262 107.147C63.9666 107.147 63.6157 107.092 63.2095 106.981C62.8033 106.87 62.4525 106.815 62.1571 106.815V105.596ZM59.7198 104.377L59.897 104.371C60.1334 104.353 60.3697 104.3 60.6061 104.211C60.9015 104.1 61.16 104.045 61.3816 104.045C61.6031 104.045 61.7878 104.156 61.9355 104.377C62.0832 104.599 62.1571 105.005 62.1571 105.596H59.7198V104.377ZM99.0486 104.377L99.0473 104.553C99.0343 105.41 98.9239 105.942 98.7162 106.15C98.4946 106.372 98.2915 106.408 98.1069 106.261C97.9223 106.113 97.8669 105.836 97.9407 105.43C98.0146 105.024 98.3839 104.673 99.0486 104.377ZM48.6413 105.596H51.0785C51.374 106.261 51.4663 106.685 51.3555 106.87C51.2447 107.055 51.0416 107.147 50.7462 107.147C50.4507 107.147 50.0999 107.092 49.6937 106.981C49.2875 106.87 48.9367 106.815 48.6413 106.815V105.596ZM82.9847 39.2356V41.6729C82.3939 41.3775 81.9138 41.2852 81.5445 41.3959C81.1752 41.5067 80.8429 41.7283 80.5474 42.0607C80.252 42.393 79.9196 42.7623 79.5504 43.1685C79.1811 43.5747 78.701 43.9255 78.1102 44.221C78.1102 43.7778 78.0732 43.4085 77.9994 43.1131C77.9255 42.8915 77.7963 42.7254 77.6116 42.6146C77.427 42.5038 77.1869 42.633 76.8915 43.0023V40.4543C77.1869 40.4543 77.427 40.5097 77.6116 40.6204C77.7963 40.7312 77.9994 40.8789 78.2209 41.0636C78.4425 41.2482 78.7379 41.3959 79.1072 41.5067C79.4765 41.6175 79.9566 41.6729 80.5474 41.6729C79.6611 41.0821 79.218 40.602 79.218 40.2327C79.218 39.8634 79.3657 39.5311 79.6611 39.2356C79.9566 38.9402 80.252 38.6078 80.5474 38.2386C80.8429 37.8693 80.8429 37.3523 80.5474 36.6876H81.8769C81.8769 37.0569 81.8215 37.3892 81.7107 37.6846C81.5999 37.9801 81.5445 38.2386 81.5445 38.4601C81.5445 38.6817 81.6368 38.8663 81.8215 39.0141C82.0061 39.1618 82.3939 39.2356 82.9847 39.2356ZM90.4073 38.017H86.7514L86.756 37.9378C86.7865 37.6784 86.9696 37.4647 87.3053 37.2969C87.6746 37.1122 88.0993 37.0199 88.5794 37.0199C89.0594 37.0199 89.4841 37.1122 89.8534 37.2969C90.2227 37.4815 90.4073 37.7216 90.4073 38.017ZM91.7367 45.3288L91.7375 45.4715C91.7432 45.9765 91.7798 46.2797 91.8475 46.3813C91.9214 46.4921 92.2537 46.5475 92.8446 46.5475C92.5492 47.2122 92.3276 47.6553 92.1799 47.8769C92.0322 48.0985 91.9583 48.2831 91.9583 48.4308C91.9583 48.5785 92.0322 48.7632 92.1799 48.9847C92.3276 49.2063 92.5492 49.6495 92.8446 50.3142C92.2537 50.0187 91.8475 49.908 91.626 49.9818C91.4044 50.0557 91.2197 50.2034 91.072 50.4249C90.9243 50.6465 90.7397 50.8866 90.5181 51.1451C90.2965 51.4036 89.8534 51.5328 89.1887 51.5328V49.0955C88.8933 48.8001 88.7086 48.6893 88.6348 48.7632C88.5609 48.837 88.487 48.9847 88.4132 49.2063C88.3393 49.4279 88.1916 49.6679 87.97 49.9264C87.7485 50.1849 87.3423 50.3142 86.7514 50.3142C86.7514 49.6495 86.8807 49.2063 87.1392 48.9847C87.3977 48.7632 87.6746 48.5785 87.97 48.4308C88.2655 48.2831 88.5424 48.0985 88.8009 47.8769C89.0594 47.6553 89.1887 47.2122 89.1887 46.5475V46.5494L89.1931 46.6804C89.202 46.8133 89.2241 46.9463 89.2596 47.0792L89.2995 47.2122C89.4472 47.5815 89.8165 47.7661 90.4073 47.7661C90.7027 47.7661 90.832 47.5815 90.7951 47.2122C90.7581 46.8429 90.7027 46.4736 90.6289 46.1043C90.555 45.735 90.555 45.4396 90.6289 45.218C90.7027 44.9965 91.072 45.0334 91.7367 45.3288ZM73.1248 73.5791V71.2526H74.3435C74.3435 71.548 74.3988 71.8988 74.5096 72.3051C74.6204 72.7113 74.6758 73.0621 74.6758 73.3575C74.6758 73.6529 74.5835 73.8376 74.3988 73.9114C74.2142 73.9853 73.7895 73.8745 73.1248 73.5791ZM51.0785 93.2989H54.7344L54.731 93.4138C54.6988 93.9354 54.4415 94.2479 53.959 94.3513C53.442 94.4621 52.888 94.5175 52.2972 94.5175C52.2972 95.1084 52.4264 95.5146 52.6849 95.7361C52.9434 95.9577 52.8142 96.4009 52.2972 97.0656C51.4109 97.0656 50.8385 96.9917 50.58 96.844C50.3215 96.6963 50.2292 96.4563 50.303 96.1239C50.3769 95.7915 50.5246 95.3853 50.7462 94.9053C50.9677 94.4252 51.0785 93.8897 51.0785 93.2989ZM82.9847 39.2356V38.017C83.2801 37.7216 83.5202 37.5923 83.7048 37.6292C83.8894 37.6662 84.111 37.777 84.3695 37.9616C84.628 38.1462 84.9234 38.2755 85.2558 38.3493C85.5882 38.4232 86.0867 38.3124 86.7514 38.017L86.7581 38.1942C86.7758 38.4306 86.829 38.6669 86.9176 38.9033C87.0284 39.1987 87.0838 39.4572 87.0838 39.6788C87.0838 39.9003 86.973 40.085 86.7514 40.2327C86.5298 40.3804 86.0867 40.4543 85.422 40.4543L85.4172 40.3578C85.3917 40.1062 85.264 39.8983 85.0342 39.7342C84.7757 39.5495 84.4988 39.4203 84.2033 39.3464C83.8341 39.2726 83.4278 39.2356 82.9847 39.2356ZM99.0486 44.221L99.1628 44.2229C99.6775 44.2413 99.9349 44.3884 99.9349 44.6641C99.9349 44.9595 99.6394 44.8118 99.0486 44.221ZM99.0486 44.221L98.8718 44.2733C98.0041 44.52 97.3799 44.5395 96.999 44.3318C96.5928 44.1102 96.2236 43.8517 95.8912 43.5563C95.5588 43.2608 95.1896 43.0208 94.7833 42.8362C94.3771 42.6515 93.7309 42.7069 92.8446 43.0023C92.5492 42.7069 92.4384 42.7069 92.5122 43.0023C92.5861 43.2978 92.66 43.667 92.7338 44.1102C92.8077 44.5533 92.8077 44.9411 92.7338 45.2734C92.66 45.6058 92.3276 45.6243 91.7367 45.3288L91.7889 45.2211C92.0334 44.6974 92.0345 44.401 91.7921 44.3318C91.5336 44.2579 91.2197 44.2579 90.8505 44.3318L89.7426 44.5533C89.3733 44.6272 89.1887 44.5164 89.1887 44.221C89.1887 43.2608 89.3179 42.7623 89.5764 42.7254C89.8349 42.6884 90.1304 42.7438 90.4627 42.8915C90.7951 43.0393 91.0905 43.0947 91.349 43.0577C91.6075 43.0208 91.7367 42.5592 91.7367 41.6729L91.8254 41.5898C92.0913 41.3572 92.3571 41.2741 92.623 41.3406C92.9185 41.4144 93.2139 41.5437 93.5093 41.7283C93.8047 41.9129 94.1002 42.0422 94.3956 42.116C94.691 42.1899 94.9864 42.0422 95.2819 41.6729C95.2819 40.7866 95.0972 40.325 94.7279 40.2881C94.3587 40.2512 93.9894 40.325 93.6201 40.5097C93.2508 40.6943 92.9554 40.7682 92.7338 40.7312C92.5122 40.6943 92.5492 40.1958 92.8446 39.2356C92.5492 39.2356 92.2537 39.291 91.9583 39.4018C91.6629 39.5126 91.4044 39.568 91.1828 39.568C90.9612 39.568 90.7766 39.4572 90.6289 39.2356C90.4812 39.0141 90.4073 38.6078 90.4073 38.017L90.552 38.0216C90.7879 38.037 90.9982 38.0908 91.1828 38.1832C91.4044 38.294 91.626 38.3863 91.8475 38.4601C92.0691 38.534 92.3461 38.5525 92.6784 38.5155C93.0108 38.4786 93.4724 38.3124 94.0632 38.017C94.0632 38.3124 94.1925 38.4971 94.451 38.5709C94.7095 38.6448 94.9864 38.6817 95.2819 38.6817C95.5773 38.6817 95.8543 38.7002 96.1128 38.7371C96.3713 38.774 96.5005 38.9402 96.5005 39.2356C96.2051 40.1958 96.1682 40.8789 96.3897 41.2852C96.6113 41.6914 96.9252 42.0053 97.3314 42.2268C97.7376 42.4484 98.1254 42.67 98.4946 42.8915C98.8639 43.1131 99.0486 43.5563 99.0486 44.221Z" fill="#FF8A00"/>
</svg>
